<svg width="530" height="600" viewBox="0 0 530 600" fill="none" xmlns="http://www.w3.org/2000/svg">
<path opacity="0.25" d="M37.8563 231.982C37.8563 231.982 44.5367 16.7308 164.773 57.4022C285.01 98.0735 305.345 201.315 391.38 121.537C477.415 41.7599 596.298 199.775 472.722 320.993C349.146 442.212 615.07 517.296 482.107 575.173C349.145 633.051 270.181 417.183 174.354 517.295C78.5268 617.408 -30.9719 473.203 8.13486 385.75C47.2416 298.298 37.8563 231.982 37.8563 231.982Z" fill="#41B4E6"/>
<path opacity="0.1" d="M231.701 539.598C231.701 539.598 20.533 581.853 32.909 455.529C45.2849 329.204 141.235 286.01 44.0419 220.284C-53.1513 154.558 73.8246 2.96908 219.886 95.8728C365.947 188.777 378.839 -87.2443 465.332 29.1508C551.826 145.546 359.458 271.358 478.676 342.015C597.895 412.671 482.243 551.99 388.206 533.711C294.168 515.433 231.701 539.598 231.701 539.598Z" fill="#41B4E6"/>
<path d="M325.493 263.331C325.493 261.939 324.365 260.811 322.974 260.811C321.582 260.811 320.454 261.939 320.454 263.331C320.454 264.722 321.582 265.85 322.974 265.85C324.366 265.85 325.493 264.722 325.493 263.331Z" fill="white"/>
<path d="M294.018 593.974C294.018 592.921 293.164 592.067 292.111 592.067C291.058 592.067 290.205 592.921 290.205 593.974C290.205 595.027 291.059 595.88 292.111 595.88C293.164 595.88 294.018 595.027 294.018 593.974Z" fill="white"/>
<path d="M200.551 348.37C200.551 345.881 198.534 343.863 196.045 343.863C193.556 343.863 191.538 345.881 191.538 348.37C191.538 350.858 193.556 352.876 196.045 352.876C198.534 352.876 200.551 350.858 200.551 348.37Z" fill="white"/>
<path d="M491.226 558.633C491.226 556.948 489.861 555.582 488.176 555.582C486.491 555.582 485.125 556.948 485.125 558.633C485.125 560.317 486.491 561.683 488.176 561.683C489.861 561.683 491.226 560.317 491.226 558.633Z" fill="white"/>
<path opacity="0.5" d="M444.863 260.873C444.863 258.878 443.246 257.262 441.251 257.262C439.257 257.262 437.64 258.878 437.64 260.873C437.64 262.868 439.257 264.485 441.251 264.485C443.246 264.485 444.863 262.868 444.863 260.873Z" fill="white"/>
<path d="M123.57 287.975C123.57 286.29 122.205 284.925 120.52 284.925C118.836 284.925 117.47 286.29 117.47 287.975C117.47 289.66 118.835 291.025 120.52 291.025C122.205 291.025 123.57 289.659 123.57 287.975Z" fill="white"/>
<path d="M201.176 414.37C201.176 413.76 200.681 413.265 200.071 413.265C199.46 413.265 198.966 413.76 198.966 414.37C198.966 414.981 199.461 415.475 200.071 415.475C200.681 415.475 201.176 414.98 201.176 414.37Z" fill="white"/>
<path d="M493.749 501.09C494.55 501.09 495.199 500.441 495.199 499.64C495.199 498.839 494.55 498.19 493.749 498.19C492.949 498.19 492.3 498.839 492.3 499.64C492.3 500.441 492.949 501.09 493.749 501.09Z" fill="white"/>
<path d="M343.676 163.159C344.477 163.159 345.126 162.51 345.126 161.709C345.126 160.908 344.477 160.259 343.676 160.259C342.875 160.259 342.226 160.908 342.226 161.709C342.226 162.51 342.875 163.159 343.676 163.159Z" fill="white"/>
<path d="M69.6493 448.79C69.6493 448.18 69.1545 447.686 68.5442 447.686C67.9346 447.686 67.4398 448.18 67.4398 448.79C67.4398 449.4 67.9346 449.894 68.5442 449.894C69.1545 449.894 69.6493 449.4 69.6493 448.79Z" fill="white"/>
<path d="M85.1352 381.811C85.1352 381.201 84.6405 380.707 84.0301 380.707C83.4205 380.707 82.9258 381.202 82.9258 381.811C82.9258 382.422 83.4205 382.916 84.0301 382.916C84.6405 382.916 85.1352 382.421 85.1352 381.811Z" fill="white"/>
<path d="M280.038 250.4C280.029 249.791 279.527 249.304 278.917 249.312C278.307 249.321 277.82 249.824 277.829 250.433C277.838 251.043 278.34 251.53 278.95 251.521C279.56 251.512 280.047 251.01 280.038 250.4Z" fill="white"/>
<path d="M88.4552 213.905C88.446 213.294 87.9444 212.808 87.334 212.816C86.7237 212.825 86.2373 213.328 86.2465 213.937C86.2557 214.548 86.7574 215.034 87.3677 215.025C87.9773 215.017 88.4644 214.515 88.4552 213.905Z" fill="white"/>
<path opacity="0.5" d="M237.649 156.448C237.649 155.838 237.155 155.343 236.545 155.343C235.935 155.343 235.441 155.838 235.441 156.448C235.441 157.058 235.936 157.552 236.545 157.552C237.155 157.552 237.649 157.058 237.649 156.448Z" fill="white"/>
<path opacity="0.5" d="M321.639 312.729C321.528 312.129 320.952 311.733 320.352 311.844C319.752 311.955 319.355 312.531 319.466 313.131C319.577 313.731 320.153 314.127 320.754 314.016C321.353 313.904 321.75 313.329 321.639 312.729Z" fill="white"/>
<path d="M360.126 285.797C360.126 285.186 359.631 284.692 359.021 284.692C358.411 284.692 357.917 285.187 357.917 285.797C357.917 286.406 358.411 286.901 359.021 286.901C359.631 286.901 360.126 286.406 360.126 285.797Z" fill="white"/>
<path opacity="0.5" d="M498.885 199.396C498.885 198.786 498.39 198.291 497.781 198.291C497.17 198.291 496.676 198.786 496.676 199.396C496.676 200.006 497.171 200.5 497.781 200.5C498.39 200.5 498.885 200.006 498.885 199.396Z" fill="white"/>
<path opacity="0.5" d="M320.107 170.452C320.107 169.841 319.613 169.347 319.003 169.347C318.393 169.347 317.898 169.842 317.898 170.452C317.898 171.061 318.393 171.556 319.003 171.556C319.613 171.556 320.107 171.061 320.107 170.452Z" fill="white"/>
<path opacity="0.5" d="M293.586 301.781C293.586 301.171 293.091 300.677 292.481 300.677C291.871 300.677 291.376 301.171 291.376 301.781C291.376 302.391 291.871 302.885 292.481 302.885C293.092 302.885 293.586 302.391 293.586 301.781Z" fill="white"/>
<path opacity="0.5" d="M421.774 257.403C421.774 256.793 421.279 256.299 420.669 256.299C420.059 256.299 419.564 256.794 419.564 257.403C419.564 258.014 420.059 258.508 420.669 258.508C421.279 258.508 421.774 258.014 421.774 257.403Z" fill="white"/>
<path d="M233.524 119.142C233.524 118.074 232.659 117.209 231.591 117.209C230.523 117.209 229.658 118.074 229.658 119.142C229.658 120.21 230.523 121.075 231.591 121.075C232.659 121.075 233.524 120.21 233.524 119.142Z" fill="white"/>
<path d="M106.123 357.764C106.123 356.696 105.258 355.831 104.189 355.831C103.121 355.831 102.256 356.696 102.256 357.764C102.256 358.832 103.122 359.697 104.189 359.697C105.257 359.697 106.123 358.832 106.123 357.764Z" fill="white"/>
<path d="M416.533 365.695C416.533 365.085 416.038 364.591 415.428 364.591C414.818 364.591 414.324 365.085 414.324 365.695C414.324 366.304 414.818 366.799 415.428 366.799C416.038 366.799 416.533 366.304 416.533 365.695Z" fill="white"/>
<path opacity="0.5" d="M364.362 231.289C364.362 230.679 363.867 230.185 363.258 230.185C362.647 230.185 362.152 230.679 362.152 231.289C362.152 231.899 362.647 232.393 363.258 232.393C363.867 232.393 364.362 231.899 364.362 231.289Z" fill="white"/>
<path d="M173.229 292.001C173.229 291.39 172.734 290.896 172.124 290.896C171.514 290.896 171.02 291.391 171.02 292.001C171.02 292.611 171.515 293.105 172.124 293.105C172.734 293.105 173.229 292.611 173.229 292.001Z" fill="white"/>
<path d="M143.465 159.37C143.465 158.76 142.97 158.266 142.36 158.266C141.75 158.266 141.256 158.76 141.256 159.37C141.256 159.98 141.751 160.474 142.36 160.474C142.97 160.474 143.465 159.98 143.465 159.37Z" fill="white"/>
<path opacity="0.5" d="M79.2811 241.001C79.2811 240.39 78.7864 239.896 78.1768 239.896C77.5664 239.896 77.0724 240.39 77.0724 241.001C77.0724 241.61 77.5672 242.105 78.1768 242.105C78.7864 242.106 79.2811 241.611 79.2811 241.001Z" fill="white"/>
<path d="M265.834 470.5C266.177 470.5 266.455 470.222 266.455 469.879C266.455 469.536 266.177 469.258 265.834 469.258C265.491 469.258 265.213 469.536 265.213 469.879C265.213 470.222 265.491 470.5 265.834 470.5Z" fill="white"/>
<path d="M244.36 422.185C244.36 420.996 243.396 420.032 242.207 420.032C241.019 420.032 240.054 420.995 240.054 422.185C240.054 423.373 241.018 424.337 242.207 424.337C243.396 424.337 244.36 423.374 244.36 422.185Z" fill="white"/>
<path d="M201.632 245.308C201.632 244.118 200.669 243.155 199.48 243.155C198.292 243.155 197.327 244.118 197.327 245.308C197.327 246.496 198.291 247.46 199.48 247.46C200.668 247.46 201.632 246.496 201.632 245.308Z" fill="white"/>
<path d="M72.0348 127.368C72.0348 126.476 71.3118 125.753 70.4204 125.753C69.529 125.753 68.806 126.476 68.806 127.368C68.806 128.259 69.529 128.982 70.4204 128.982C71.3118 128.982 72.0348 128.259 72.0348 127.368Z" fill="white"/>
<path d="M432.705 408.855C432.705 408.231 432.2 407.727 431.577 407.727C430.954 407.727 430.448 408.232 430.448 408.855C430.448 409.478 430.954 409.983 431.577 409.983C432.2 409.983 432.705 409.478 432.705 408.855Z" fill="white"/>
<path d="M85.1 516.766C85.1 516.155 84.6053 515.661 83.9957 515.661C83.3853 515.661 82.8914 516.156 82.8914 516.766C82.8914 517.376 83.3861 517.871 83.9957 517.871C84.6053 517.87 85.1 517.375 85.1 516.766Z" fill="white"/>
<path d="M465.403 357.413L464.465 361.79L463.527 357.413L460.215 356.367L463.527 355.322L464.465 350.944L465.403 355.322L468.716 356.367L465.403 357.413Z" fill="white"/>
<path d="M167.86 215.552L165.429 226.897L162.998 215.552L154.413 212.842L162.998 210.133L165.429 198.788L167.86 210.133L176.445 212.842L167.86 215.552Z" fill="white"/>
<path d="M285.965 116.185L283.535 127.53L281.103 116.185L272.518 113.476L281.103 110.766L283.535 99.4209L285.965 110.766L294.55 113.476L285.965 116.185Z" fill="white"/>
<path opacity="0.5" d="M202.755 168.527L201.23 175.641L199.706 168.527L194.323 166.828L199.706 165.13L201.23 158.016L202.755 165.13L208.137 166.828L202.755 168.527Z" fill="white"/>
<path d="M81.4953 102.228L79.9712 109.342L78.4464 102.228L73.0641 100.529L78.4464 98.8299L79.9712 91.7168L81.4953 98.8299L86.8776 100.529L81.4953 102.228Z" fill="white"/>
<path d="M398.262 200.731L396.738 207.844L395.213 200.731L389.831 199.032L395.213 197.333L396.738 190.22L398.262 197.333L403.645 199.032L398.262 200.731Z" fill="white"/>
<path d="M104.003 253.861L103.05 258.308L102.097 253.861L98.7328 252.8L102.097 251.738L103.05 247.292L104.003 251.738L107.366 252.8L104.003 253.861Z" fill="white"/>
<path d="M130.281 389.974L128.757 397.087L127.233 389.974L121.85 388.276L127.233 386.577L128.757 379.463L130.281 386.577L135.664 388.276L130.281 389.974Z" fill="white"/>
<path d="M186.669 554.347L183.974 566.916L181.281 554.347L171.77 551.345L181.281 548.343L183.974 535.773L186.669 548.343L196.179 551.345L186.669 554.347Z" fill="white"/>
<path opacity="0.5" d="M391.398 396.838L389.873 403.952L388.349 396.838L382.966 395.14L388.349 393.44L389.873 386.327L391.398 393.44L396.78 395.14L391.398 396.838Z" fill="white"/>
<path d="M101.587 571.24L100.493 576.344L99.399 571.24L95.5369 570.021L99.399 568.801L100.493 563.697L101.587 568.801L105.449 570.021L101.587 571.24Z" fill="white"/>
<path d="M218.082 582.46C218.082 581.407 217.229 580.554 216.176 580.554C215.123 580.554 214.27 581.407 214.27 582.46C214.27 583.513 215.124 584.366 216.176 584.366C217.229 584.366 218.082 583.513 218.082 582.46Z" fill="white"/>
<path d="M456.083 586.486C456.083 585.433 455.229 584.58 454.176 584.58C453.123 584.58 452.269 585.434 452.269 586.486C452.269 587.539 453.123 588.392 454.176 588.392C455.229 588.393 456.083 587.539 456.083 586.486Z" fill="white"/>
<path opacity="0.5" d="M96.5869 483.478C96.5869 481.793 95.2214 480.427 93.5365 480.427C91.8517 480.427 90.4862 481.793 90.4862 483.478C90.4862 485.163 91.8517 486.528 93.5365 486.528C95.2214 486.528 96.5869 485.162 96.5869 483.478Z" fill="white"/>
<path opacity="0.5" d="M189.466 95.1108C190.073 93.5393 189.292 91.7733 187.721 91.1659C186.15 90.5586 184.383 91.3398 183.776 92.9105C183.169 94.482 183.95 96.248 185.52 96.8561C187.093 97.4634 188.859 96.6823 189.466 95.1108Z" fill="white"/>
<path opacity="0.5" d="M128.702 588.606C128.702 587.995 128.207 587.501 127.597 587.501C126.987 587.501 126.493 587.996 126.493 588.606C126.493 589.216 126.988 589.71 127.597 589.71C128.207 589.711 128.702 589.216 128.702 588.606Z" fill="white"/>
<path opacity="0.5" d="M145.044 517.475C145.044 516.865 144.55 516.371 143.94 516.371C143.33 516.371 142.836 516.865 142.836 517.475C142.836 518.085 143.33 518.58 143.94 518.58C144.55 518.579 145.044 518.085 145.044 517.475Z" fill="white"/>
<path opacity="0.5" d="M400.044 534.922C400.044 533.778 399.116 532.851 397.973 532.851C396.829 532.851 395.902 533.778 395.902 534.922C395.902 536.066 396.83 536.993 397.973 536.993C399.117 536.993 400.044 536.066 400.044 534.922Z" fill="white"/>
<path d="M422.622 524.422C422.622 523.812 422.128 523.318 421.518 523.318C420.908 523.318 420.414 523.813 420.414 524.422C420.414 525.032 420.908 525.527 421.518 525.527C422.128 525.527 422.622 525.032 422.622 524.422Z" fill="white"/>
<path d="M313.652 229.544C313.652 228.934 313.157 228.44 312.548 228.44C311.937 228.44 311.443 228.935 311.443 229.544C311.443 230.155 311.938 230.649 312.548 230.649C313.157 230.649 313.652 230.154 313.652 229.544Z" fill="white"/>
<path d="M216.202 276.716C216.202 275.959 215.589 275.346 214.832 275.346C214.076 275.346 213.464 275.959 213.464 276.716C213.464 277.471 214.076 278.084 214.832 278.084C215.589 278.084 216.202 277.471 216.202 276.716Z" fill="white"/>
<path d="M126.948 96.2153C127.558 96.2153 128.052 95.7209 128.052 95.1109C128.052 94.501 127.558 94.0066 126.948 94.0066C126.338 94.0066 125.843 94.501 125.843 95.1109C125.843 95.7209 126.338 96.2153 126.948 96.2153Z" fill="white"/>
<path d="M224.849 422.906C224.849 422.563 224.571 422.285 224.228 422.285C223.885 422.285 223.607 422.563 223.607 422.906C223.607 423.249 223.885 423.527 224.228 423.527C224.571 423.527 224.849 423.249 224.849 422.906Z" fill="white"/>
<path d="M267.077 557.738C267.077 557.395 266.799 557.117 266.456 557.117C266.113 557.117 265.835 557.395 265.835 557.738C265.835 558.081 266.113 558.359 266.456 558.359C266.798 558.359 267.077 558.081 267.077 557.738Z" fill="white"/>
<path d="M467.15 98.7378C467.15 98.3947 466.872 98.1167 466.528 98.1167C466.185 98.1167 465.907 98.3947 465.907 98.7378C465.907 99.0809 466.185 99.3589 466.528 99.3589C466.872 99.3589 467.15 99.0809 467.15 98.7378Z" fill="white"/>
<path d="M455.588 281.482C455.588 281.139 455.31 280.861 454.967 280.861C454.624 280.861 454.345 281.139 454.345 281.482C454.345 281.825 454.623 282.103 454.967 282.103C455.31 282.104 455.588 281.826 455.588 281.482Z" fill="white"/>
<path d="M147.729 435.606C147.729 435.263 147.451 434.985 147.107 434.985C146.764 434.985 146.486 435.263 146.486 435.606C146.486 435.949 146.764 436.227 147.107 436.227C147.45 436.227 147.729 435.949 147.729 435.606Z" fill="white"/>
<path d="M492.65 598.896C492.65 598.285 492.155 597.791 491.545 597.791C490.935 597.791 490.441 598.285 490.441 598.896C490.441 599.505 490.936 600 491.545 600C492.155 600 492.65 599.505 492.65 598.896Z" fill="white"/>
<path d="M353.082 360.055C353.082 358.911 352.155 357.985 351.01 357.985C349.866 357.985 348.94 358.912 348.94 360.055C348.94 361.2 349.867 362.127 351.01 362.127C352.155 362.127 353.082 361.2 353.082 360.055Z" fill="white"/>
<path d="M302.785 443.363L301.847 447.739L300.909 443.363L297.596 442.316L300.909 441.271L301.847 436.894L302.785 441.271L306.097 442.316L302.785 443.363Z" fill="white"/>
<path d="M238.864 370.893L237.926 375.27L236.988 370.893L233.676 369.847L236.988 368.802L237.926 364.424L238.864 368.802L242.176 369.847L238.864 370.893Z" fill="white"/>
<path opacity="0.5" d="M283.646 534.293L282.122 541.407L280.597 534.293L275.214 532.595L280.597 530.895L282.122 523.782L283.646 530.895L289.028 532.595L283.646 534.293Z" fill="white"/>
<path d="M397.739 581.901L395.574 592.006L393.408 581.901L385.763 579.488L393.408 577.075L395.574 566.97L397.739 577.075L405.385 579.488L397.739 581.901Z" fill="white"/>
<path opacity="0.5" d="M489.965 464.361L489.107 468.367L488.248 464.361L485.218 463.405L488.248 462.448L489.107 458.443L489.965 462.448L492.996 463.405L489.965 464.361Z" fill="white"/>
<path d="M422.86 179.264C422.86 178.197 421.994 177.331 420.927 177.331C419.859 177.331 418.994 178.197 418.994 179.264C418.994 180.332 419.859 181.197 420.927 181.197C421.994 181.197 422.86 180.332 422.86 179.264Z" fill="white"/>
<path d="M368.262 371.073C368.736 373.924 366.809 376.617 363.958 377.091C361.108 377.564 358.415 375.637 357.941 372.787C357.468 369.936 359.395 367.243 362.245 366.769C365.095 366.296 367.789 368.223 368.262 371.073Z" fill="white"/>
<path d="M378.654 362.64C378.891 364.065 377.927 365.412 376.502 365.649C375.077 365.886 373.73 364.922 373.493 363.497C373.256 362.072 374.22 360.725 375.645 360.488C377.07 360.251 378.417 361.215 378.654 362.64Z" fill="white"/>
<path d="M390.191 355.784C390.507 357.684 389.222 359.48 387.322 359.796C385.422 360.111 383.626 358.827 383.31 356.926C382.995 355.026 384.279 353.23 386.18 352.915C388.079 352.599 389.876 353.884 390.191 355.784Z" fill="white"/>
<path d="M322.374 515.364C322.212 517.989 321.978 520.805 320.309 522.838C318.342 525.235 314.981 525.844 311.913 526.294C307.442 526.95 302.971 527.607 298.501 528.264C298.272 528.925 299.045 529.48 299.708 529.704C303.014 530.823 306.615 530.335 310.085 529.974C314.107 529.555 318.15 529.324 322.194 529.284C323.994 529.265 326.129 529.105 327.042 527.554C327.724 526.397 327.412 524.945 327.252 523.611C326.765 519.548 327.909 515.408 327.327 511.358C327.261 510.891 327.11 510.351 326.669 510.183C326.444 510.098 326.194 510.134 325.959 510.182C322.538 510.873 322.564 512.291 322.374 515.364Z" fill="#FFE3CA"/>
<path d="M323.595 525.893C320.264 527.928 316.878 528.479 313.005 527.996C312.768 527.967 311.468 527.68 311.231 527.655C311.093 526.912 311.169 526.184 310.559 526.208C307.757 526.316 304.961 526.549 302.181 526.909C301.298 527.023 297.944 527.101 297.591 527.788C297.275 528.401 297.477 529.183 297.922 529.708C298.367 530.234 299.011 530.548 299.655 530.794C302.83 532.004 306.338 531.86 309.732 531.7C313.907 531.503 318.081 531.307 322.256 531.109C323.68 531.042 325.18 530.951 326.376 530.176C328.136 529.034 328.742 526.732 328.784 524.635C328.861 520.821 324.799 525.159 323.595 525.893Z" fill="#0B4870"/>
<path d="M310.161 326.075C310.161 326.075 319.55 325.529 319.531 325.294C319.314 322.559 316.842 318.505 318.126 316.08C319.409 313.655 320.391 312.282 321.687 309.865C321.879 309.507 322.046 309.019 321.754 308.738C321.515 308.507 321.125 308.583 320.806 308.678C319.089 309.188 317.396 309.777 315.733 310.443C312.918 311.571 310.256 311.542 310.16 314.519C310.056 317.79 310.161 326.075 310.161 326.075Z" fill="#FFE3CA"/>
<path d="M256.974 522.374C256.468 524.955 255.866 527.716 253.944 529.512C251.679 531.629 248.267 531.791 245.167 531.834C240.648 531.898 236.13 531.961 231.612 532.024C231.298 532.65 231.991 533.302 232.619 533.611C235.749 535.155 239.382 535.144 242.871 535.242C246.914 535.356 250.951 535.659 254.965 536.15C256.751 536.368 258.889 536.489 259.999 535.072C260.827 534.015 260.708 532.534 260.725 531.192C260.776 527.1 262.454 523.147 262.41 519.055C262.404 518.583 262.327 518.028 261.911 517.803C261.7 517.69 261.447 517.692 261.207 517.708C257.727 517.944 257.566 519.352 256.974 522.374Z" fill="#FFE3CA"/>
<path d="M331.418 398.109C331.418 398.109 328.39 420.433 327.255 437.46C326.121 454.487 331.796 491.189 331.418 501.027C331.039 510.865 328.77 516.54 328.77 516.54H320.067C320.067 516.54 309.472 470.757 309.094 460.919C308.715 451.081 302.283 400.758 302.283 400.758L331.418 398.109Z" fill="#0B4870"/>
<path d="M215.468 316.342C215.574 317.351 214.121 317.633 213.85 316.655C210.21 303.512 201.794 270.211 201.913 265.631C201.987 262.741 204.051 260.641 204.051 260.641H206.665C206.665 260.641 208.803 262.78 209.042 265.631C209.206 267.618 214.082 303.16 215.468 316.342Z" fill="#0B4870"/>
<path d="M310.362 297.421C309.333 299.351 308.064 301.575 305.895 301.862C305.549 301.908 305.179 301.903 304.881 302.084C304.325 302.42 304.283 303.197 304.307 303.846C304.397 306.32 304.486 308.793 304.576 311.266C304.658 313.527 304.95 316.166 306.885 317.339C308.273 318.18 310.034 317.941 311.627 317.634C312.902 317.389 314.181 317.116 315.377 316.609C319.096 315.033 321.58 311.347 322.734 307.475C323.642 304.427 323.823 301.026 322.471 298.146C319.844 292.549 313.262 291.983 310.362 297.421Z" fill="#FFE3CA"/>
<path d="M327.247 397.099C325.552 397.344 323.867 397.644 322.187 397.978C321.89 397.758 321.49 397.665 321.117 397.594C309.428 395.387 297.34 395.994 286.216 400.207C280.47 417.716 265.08 480.914 261.868 489.433C258.071 499.503 257.623 510.951 255.215 521.44C258.978 522.267 258.561 522.013 262.411 522.153C275.853 490.351 283.336 491.981 285.317 470.799C285.72 466.501 291.378 459.253 293.871 455.728C305.683 439.028 325.756 415.681 328.872 410.735C331.658 406.316 337.201 395.661 327.247 397.099Z" fill="#0B4870"/>
<path d="M216.17 287.574C215.971 286.809 215.705 285.999 215.073 285.523C214.265 284.914 213.111 285.051 212.174 285.432C211.236 285.814 210.382 286.407 209.404 286.665C207.645 287.128 205.559 286.5 204.104 287.589C203.256 288.225 202.85 289.397 203.127 290.42C203.269 290.949 203.57 291.42 203.793 291.922C204.553 293.631 204.416 295.715 205.522 297.225C206.361 298.371 207.752 298.95 209.071 299.475C212.27 300.75 215.469 302.024 218.668 303.299C218.873 303.38 219.11 303.462 219.308 303.364C219.476 303.282 219.563 303.096 219.632 302.923C220.972 299.59 220.397 297.979 218.719 295.281C217.264 292.943 216.853 290.197 216.17 287.574Z" fill="#FFE3CA"/>
<path d="M256.801 532.972C253.23 534.551 249.802 534.652 246.025 533.665C245.795 533.605 244.543 533.151 244.311 533.094C244.273 532.339 244.443 531.627 243.836 531.571C241.045 531.31 238.242 531.174 235.438 531.165C234.548 531.162 231.213 530.799 230.772 531.433C230.379 531.999 230.476 532.8 230.849 533.38C231.221 533.959 231.817 534.355 232.423 534.683C235.412 536.301 238.908 536.62 242.295 536.907C246.459 537.261 250.623 537.614 254.787 537.968C256.208 538.088 257.707 538.196 258.995 537.584C260.889 536.684 261.792 534.482 262.11 532.409C262.687 528.635 258.089 532.402 256.801 532.972Z" fill="#0B4870"/>
<path d="M336.202 334.106C331.791 330.169 326.781 325.996 320.868 326.081C318.898 326.109 288.726 319.328 285.222 319.056C261.811 317.234 242.724 298.525 219.44 295.476C217.127 296.215 216.364 299.348 217.308 301.585C218.252 303.822 220.335 305.335 222.34 306.704C243.289 321.014 265.434 325.412 288.211 336.586C282.964 350.156 293.817 366.564 292.922 369.929C291.966 373.529 283.364 397.265 284.307 400.868C292.795 403.479 299.557 403.827 308.407 404.563C317.258 405.299 326.736 403.703 334.243 398.958C333.42 394.564 329.482 390.511 332.493 388.889C341.112 383.408 349.478 379.274 355.167 370.79C356.265 369.154 357.249 367.38 357.544 365.432C358.359 360.062 342.489 339.718 336.202 334.106ZM331.114 379.342C332.22 374.393 335.437 350.105 335.437 350.105C337.985 351.43 349.733 365.305 349.733 365.305C349.733 365.305 333.614 377.674 331.114 379.342Z" fill="#2A94F4"/>
<path d="M207.009 260.529C205.337 261.443 203.197 261.039 201.892 259.651C201.136 258.848 200.593 257.753 201.108 256.426C202.256 253.474 204.388 250.031 203.404 248.063C202.42 246.094 202.42 246.259 202.42 246.094C202.42 245.931 207.845 249.145 208.652 251.834C210.292 257.302 208.739 259.583 207.009 260.529Z" fill="#F7F7F7"/>
<path d="M214.033 278.981C213.797 278.383 213.473 277.733 212.864 277.53C212.135 277.285 211.333 277.847 211.036 278.556C210.738 279.265 210.811 280.068 210.889 280.833C211.104 282.952 211.319 285.073 211.534 287.193C211.657 288.398 211.925 289.817 213.03 290.315C213.853 290.686 214.884 290.332 215.454 289.631C216.551 288.283 215.825 286.707 215.604 285.209C215.29 283.07 214.829 280.999 214.033 278.981Z" fill="#FFE3CA"/>
<path d="M209.202 254.359C209.094 253.596 208.935 252.778 208.652 251.833C207.845 249.145 202.42 245.93 202.42 246.093C202.42 246.149 202.423 246.172 202.461 246.246C202.474 246.27 202.487 246.296 202.501 246.322C202.603 246.512 202.839 246.931 203.403 248.061C204.34 249.935 202.461 253.141 201.287 255.993C201.631 256.177 202.006 256.238 202.386 256.072C203.182 255.722 203.611 254.535 204.471 254.656C205.685 254.826 205.219 257.125 206.36 257.572C207.066 257.848 207.78 257.145 208.065 256.442C208.35 255.739 208.479 254.914 209.063 254.431C209.107 254.397 209.156 254.384 209.202 254.359Z" fill="#2A94F4"/>
<path d="M329.257 297.626C327.359 295.719 324.893 294.487 322.401 293.473C320.469 292.686 318.44 292.001 316.354 292.044C314.269 292.086 312.099 292.976 310.995 294.746C310.153 296.096 310.023 297.796 310.312 299.361C310.5 300.38 310.947 302.592 311.733 303.347C312.397 303.981 313.45 303.549 314.011 304.481C314.398 305.124 314.351 305.941 314.155 306.666C313.951 307.416 313.578 308.155 312.945 308.606C312.767 308.733 312.567 308.831 312.357 308.896C311.337 309.212 310.668 310.176 310.815 311.232C311.044 312.88 311.655 314.475 312.6 315.843C312.825 316.167 313.074 316.476 313.353 316.753C313.287 317.225 313.161 317.701 313.096 318.172C312.902 319.572 313.499 321.254 314.863 321.621C314.378 321.081 313.901 320.456 313.876 319.73C313.851 319.004 314.51 318.23 315.213 318.413C315.775 318.559 316.052 319.195 316.14 319.768C316.342 321.084 315.944 322.48 315.077 323.49C315.999 322.972 316.95 322.428 317.575 321.576C318.249 320.658 318.48 319.468 319.173 318.565C319.323 318.372 319.493 318.198 319.671 318.031C319.751 318.14 319.834 318.249 319.909 318.36C320.466 319.173 320.521 319.709 320.086 321.014C320.014 321.233 319.561 321.992 319.561 321.992C319.658 321.904 321.938 320.193 320.353 317.538C320.743 317.467 321.131 317.384 321.509 317.264C324.344 316.369 326.407 313.976 328.311 311.693C329.997 309.673 331.752 307.499 332.083 304.89C332.423 302.219 331.154 299.532 329.257 297.626Z" fill="#0B4870"/>
<path d="M327.725 296.308C324.688 296.406 322.186 298.051 322.385 302.179C322.437 303.259 322.791 304.302 322.903 305.378C323.355 309.715 319.958 313.355 317.923 317.212C317.259 318.471 316.775 320.143 317.715 321.211C317.731 321.228 317.751 321.238 317.767 321.255C318.29 320.39 318.556 319.369 319.174 318.565C319.324 318.372 319.494 318.198 319.671 318.031C319.752 318.14 319.834 318.249 319.91 318.36C320.467 319.173 320.521 319.71 320.087 321.014C320.014 321.233 319.562 321.993 319.562 321.993C319.659 321.904 321.939 320.193 320.354 317.538C320.744 317.467 321.132 317.384 321.51 317.264C324.345 316.369 326.408 313.976 328.312 311.694C329.998 309.673 331.752 307.499 332.084 304.89C332.423 302.221 331.153 299.534 329.256 297.627C328.779 297.146 328.265 296.709 327.725 296.308Z" fill="#0B4870"/>
<path d="M337.894 302.826C338.757 298.804 336.196 294.843 332.174 293.979C328.152 293.116 324.191 295.676 323.327 299.699C322.464 303.721 325.024 307.682 329.047 308.546C333.069 309.409 337.03 306.848 337.894 302.826Z" fill="#0B4870"/>
<path d="M433.097 360.366C432.794 360.099 432.475 359.837 432.096 359.694C431.651 359.526 431.16 359.538 430.683 359.555C430.018 359.581 429.352 359.614 428.688 359.657C428.375 359.676 428.001 359.738 427.877 360.026C427.744 360.337 428.003 360.672 428.269 360.88C429.09 361.52 430.147 361.795 430.977 362.424C431.808 363.053 432.368 364.006 433.25 364.562C433.506 364.723 433.797 364.85 434.099 364.839C434.397 364.828 434.673 364.685 434.936 364.545C436.095 363.93 436.023 363.568 435.229 362.588C434.587 361.798 433.881 361.02 433.097 360.366Z" fill="#F7F7F7"/>
<path d="M419.459 512.658L419.428 521.281C419.421 523.036 419.66 524.782 420.136 526.471L420.886 529.126C421.502 531.308 419.862 533.472 417.597 533.463C411.723 533.442 401.683 533.458 399.096 533.463C398.673 533.463 398.258 533.178 398.222 532.756C398.004 530.238 405.276 528.552 410.753 526.432C414.925 524.816 414.703 517.317 414.189 512.938C413.995 511.284 415.374 509.876 417.035 510.013C418.408 510.128 419.465 511.279 419.459 512.658Z" fill="#FCD2B1"/>
<path d="M459.829 510.238L462.8 520.104C462.931 520.54 463.127 520.953 463.382 521.331L465.488 524.459C466.826 526.445 465.863 529.158 463.573 529.857C463.573 529.857 459.326 531.351 454.947 532.789C450.466 534.262 444.828 533.031 444.828 531.849C444.828 529.221 447.278 531.307 451.382 528.563C452.758 527.643 454.177 526.681 455.442 525.688C458.974 522.915 455.89 515.896 453.728 511.943C452.951 510.522 453.776 508.757 455.361 508.42L456.384 508.201C457.887 507.88 459.385 508.766 459.829 510.238Z" fill="#FCD2B1"/>
<path d="M429.477 394.843L396.925 392.111C396.925 392.111 393.647 415.804 401.874 458.692C405.732 478.805 413.773 517.238 413.773 517.238C415.766 518.111 417.792 518.33 419.856 517.815C419.856 517.815 420.466 500.862 420.84 482.605C421.199 465.095 421.295 446.386 422.41 440.265C424.689 427.759 429.477 394.843 429.477 394.843Z" fill="#0B4870"/>
<path d="M422.758 395.256C419.397 413.293 411.889 440.265 426.351 465.602C440.813 490.94 456.003 517.283 456.003 517.283C457.959 517.362 459.735 516.653 461.383 515.401C461.383 515.401 458.848 503.914 455.182 490.501C450.989 475.157 445.678 457.109 447.191 447.699C450.027 430.062 453.285 406.575 452.298 395.168C451.31 383.762 424.525 385.771 422.758 395.256Z" fill="#0B4870"/>
<path d="M395.629 392.154L407.642 317.591L437.018 313.559L452.806 392.293C453.102 393.772 452.144 395.209 450.662 395.49C445.193 396.526 432 398.692 417.235 398.692C406.213 398.692 400.019 396.549 397.201 395.192C396.059 394.642 395.427 393.406 395.629 392.154Z" fill="#F7F7F7"/>
<path d="M427.841 318.203C427.841 323.575 428.818 328.894 430.652 333.943C434.241 343.819 439.625 362.495 436.426 378.948C431.818 402.641 425.895 412.219 433.574 417.741C441.252 423.262 455.977 414.049 456.403 410.978C456.828 407.907 453.537 370.178 449.807 353.832C446.077 337.485 435.631 313.987 435.631 313.987L431.206 314.46C429.293 314.664 427.841 316.279 427.841 318.203Z" fill="#3D5BC4"/>
<path d="M415.612 316.497C415.612 316.497 410.517 327.508 412.294 343.328C414.071 359.148 418.189 407.322 403.793 414.596C399.235 416.9 388.825 406.699 388.825 402.914C388.825 399.129 392.3 386.461 395.592 374.943C398.884 363.426 406.818 317.704 406.818 317.704L415.612 316.497Z" fill="#3D5BC4"/>
<path d="M419.713 282.371C426.269 282.371 428.715 287.038 428.84 295.671C428.887 298.905 427.432 302.108 426.261 304.154C425.391 305.673 425.153 307.473 425.65 309.152L427.089 314.025C428.068 318.545 425.921 321.024 422.752 321.924C421.182 322.37 419.302 322.025 417.931 321.139C416.301 320.086 416.167 317.82 416.469 315.903L416.842 314.514C417.343 312.642 416.258 310.625 414.365 310.211C409.317 309.106 408.594 303.844 407.241 295.671C405.832 287.153 413.156 282.371 419.713 282.371Z" fill="#FCD2B1"/>
<path d="M425.226 295.831C425.226 297.833 425.971 299.455 427.899 299.455C429.827 299.455 431.063 296.702 431.063 294.701C431.063 292.699 429.827 292.207 427.899 292.207C425.971 292.207 425.226 293.829 425.226 295.831Z" fill="#FCD2B1"/>
<path d="M426.023 304.618C426.023 304.618 421.126 311.35 415.033 310.438C415.033 310.438 416.299 311.043 416.606 312.026C416.606 312.025 422.394 311.598 426.023 304.618Z" fill="#FCD2B1"/>
<path d="M408.59 317.465C408.59 317.465 401.687 318.665 383.68 341.174C375.877 357.68 375.336 351.438 375.336 351.438C375.336 351.438 377.098 361.946 382.2 359.545C387.302 357.144 403.188 340.274 403.188 340.274L408.59 317.465Z" fill="#3D5BC4"/>
<path d="M379.344 340.889C377.229 344.271 374.635 347.306 374.48 351.293C374.325 355.28 377.079 359.677 381.067 359.791C384.369 359.885 387.386 352.617 387.386 352.617L401.687 321.214L395.545 318.892C395.544 318.891 382.679 335.554 379.344 340.889Z" fill="#3D5BC4"/>
<path d="M401.099 321.031C401.193 321.168 401.287 321.306 401.381 321.443C403.512 318.977 405.5 316.389 407.332 313.695C407.805 312.999 408.282 312.259 408.359 311.422C408.458 310.364 407.904 309.366 407.37 308.447C406.756 307.391 406.174 306.006 405.56 304.95C406.554 303.779 407.548 302.607 408.543 301.436C408.947 300.96 409.36 300.469 409.569 299.88C409.778 299.291 409.743 298.573 409.319 298.114C408.895 297.656 408.284 297.522 407.815 297.936C405.645 299.855 396.112 315.958 395.87 318.226C395.723 319.603 395.643 321.183 396.618 322.166C397.8 323.356 399.867 322.171 401.099 321.031Z" fill="#FCD2B1"/>
<path d="M410.018 286.284C410.018 286.284 419.93 287.109 422.993 284.907C422.993 284.907 424.171 291.754 426.023 293.021C427.875 294.288 426.808 291.542 428.639 292.238C428.639 292.238 430.076 284.046 423.566 281.557C417.057 279.068 413.132 276.005 413.132 276.005L416.004 278.973L411.313 277.632L413.611 279.834L404.612 279.355L407.064 280.504L402.697 283.663L408.588 283.376L402.217 287.014L408.588 285.769L406.048 287.492L410.018 286.284Z" fill="#0B4870"/>
<path d="M377.242 353.959C376.965 353.771 376.623 353.583 376.314 353.71C376.096 353.798 375.966 354.018 375.822 354.204C374.255 356.223 370.389 354.874 368.916 356.963C368.312 357.819 368.372 359.011 368.814 359.96C369.257 360.909 370.024 361.663 370.801 362.365C372.798 364.171 378.079 364.817 378.079 364.817L384.725 366.792L385.033 363.921L381.834 361.439C381.834 361.439 382.659 359.71 382.439 359.386C380.82 356.998 378.566 354.857 377.242 353.959Z" fill="#FCD2B1"/>
<path d="M377.586 353.875C377.317 353.573 377.03 353.275 376.672 353.088C376.249 352.868 375.761 352.821 375.285 352.782C374.621 352.727 373.956 352.681 373.292 352.645C372.978 352.627 372.601 352.645 372.443 352.916C372.274 353.207 372.49 353.571 372.73 353.809C373.469 354.542 374.485 354.942 375.234 355.665C375.985 356.389 376.428 357.401 377.237 358.059C377.471 358.25 377.746 358.411 378.047 358.436C378.344 358.46 378.634 358.351 378.913 358.244C380.137 357.771 380.108 357.403 379.437 356.336C378.894 355.474 378.286 354.617 377.586 353.875Z" fill="#FCD2B1"/>
<path d="M435.632 313.987C443.268 316.404 453.574 325.751 452.775 333.72C451.463 346.803 448.704 365.764 443.282 374.751C440.838 378.802 434.137 377.319 429.441 376.748C415.663 375.076 388.404 371.473 376.353 364.586C376.823 362.594 376.834 360.873 377.906 359.13C390.331 358.589 419.296 359.874 431.195 363.493L434.301 345.738" fill="#3D5BC4"/>
<path d="M465.489 524.459C465.489 524.459 459.014 528.818 454.582 529.6C450.15 530.382 448.585 529.6 448.585 529.6C448.585 529.6 444.414 529.388 443.437 531.735C442.459 534.081 449.455 536.476 454.463 535.45C459.471 534.424 466.51 530.077 466.51 530.077C466.51 530.077 468.379 524.272 465.489 524.459Z" fill="#0B4870"/>
<path d="M419.547 528.178C419.547 528.178 412.33 531.152 407.831 531.03C403.331 530.908 401.956 529.829 401.956 529.829C401.956 529.829 397.911 528.786 396.483 530.888C395.055 532.991 401.43 536.739 406.542 536.737C411.653 536.735 419.421 533.887 419.421 533.887C419.421 533.887 422.417 528.573 419.547 528.178Z" fill="#0B4870"/>
<path d="M314.929 260.226L276.467 258.379V197.586L314.929 200.702V260.226Z" fill="#2B3990"/>
<path d="M165.652 232.428L138.617 231.13V188.396L165.652 190.586V232.428Z" fill="#2B3990"/>
<path d="M172.573 294.966L150.87 293.924V259.619L172.573 261.377V294.966Z" fill="#2A94F4"/>
<path d="M250.616 202.932L216.732 204.188V161.592L250.616 162.847V202.932Z" fill="#2A94F4"/>
</svg>
