<svg width="32" height="32" viewBox="0 0 32 32" fill="none" xmlns="http://www.w3.org/2000/svg">
<path d="M27.2914 19.1675C26.4492 18.3175 25.2508 17.9478 24.0857 18.1783C23.5608 18.2821 23.0134 18.3348 22.4584 18.3348C20.9709 18.3348 19.5789 17.9616 18.5389 17.284C17.5618 16.6474 17.0238 15.8219 17.0238 14.9595C17.0238 13.7249 18.1761 12.5504 19.9595 11.9675C20.2089 11.8859 20.345 11.6177 20.2635 11.3683C20.182 11.1188 19.9138 10.9827 19.6643 11.0643C17.4493 11.7882 16.0734 13.2808 16.0734 14.9595C16.0734 16.154 16.7648 17.2623 18.0201 18.0802C19.2126 18.8571 20.7888 19.285 22.4584 19.285C23.0751 19.285 23.6846 19.2263 24.2701 19.1104C25.1219 18.9419 25.9989 19.2133 26.6166 19.8365C27.2327 20.4581 27.4957 21.3353 27.3201 22.1828C27.3113 22.2251 27.3025 22.2624 27.2938 22.2938C26.5536 24.9877 24.8674 27.3531 22.5461 28.9545C22.3301 29.1035 22.2757 29.3994 22.4247 29.6153C22.5169 29.749 22.6653 29.8207 22.8163 29.8207C22.9093 29.8207 23.0033 29.7935 23.0856 29.7366C25.5908 28.0086 27.4108 25.4548 28.2101 22.5456C28.2241 22.4948 28.2377 22.4375 28.2506 22.3754C28.4909 21.2152 28.1324 20.016 27.2914 19.1675Z" fill="#2B3990"/>
<path d="M21.6774 30.0539C21.5616 29.8185 21.2768 29.7217 21.0413 29.8376C19.4123 30.6397 17.6647 31.0475 15.8472 31.0497C15.842 31.0497 15.8371 31.0497 15.832 31.0497C12.6306 31.0497 9.62884 29.7956 7.37853 27.5174C5.12509 25.236 3.90796 22.2122 3.95146 19.003C3.99328 15.9189 5.2244 13.0056 7.41809 10.7997C9.61184 8.59375 12.5182 7.34675 15.6017 7.28837C17.1578 7.25912 18.6741 7.52519 20.1099 8.07956C20.3547 8.174 20.6298 8.05225 20.7243 7.8075C20.8188 7.56269 20.697 7.28762 20.4522 7.19312C18.9009 6.59412 17.2623 6.30675 15.5838 6.33831C12.2523 6.40137 9.11296 7.74781 6.74428 10.1297C4.37572 12.5114 3.0464 15.6581 3.00122 18.9901C2.95428 22.4558 4.26865 25.7213 6.7024 28.1852C9.13284 30.6457 12.3742 32.0001 15.8318 32C15.8371 32 15.8429 32 15.8483 32C17.8123 31.9975 19.7007 31.5569 21.461 30.6901C21.6965 30.5742 21.7933 30.2894 21.6774 30.0539Z" fill="#2B3990"/>
<path d="M11.4744 10.1566C10.2249 10.1566 9.20837 11.1731 9.20837 12.4226C9.20837 13.6721 10.2249 14.6886 11.4744 14.6886C12.7239 14.6886 13.7404 13.6721 13.7404 12.4226C13.7403 11.1731 12.7238 10.1566 11.4744 10.1566ZM11.4744 13.7382C10.7489 13.7382 10.1586 13.148 10.1586 12.4225C10.1586 11.697 10.7489 11.1067 11.4744 11.1067C12.1999 11.1067 12.7901 11.697 12.7901 12.4225C12.7901 13.148 12.1999 13.7382 11.4744 13.7382Z" fill="#2B3990"/>
<path d="M8.13135 15.6484C6.88191 15.6484 5.86535 16.6649 5.86535 17.9144C5.86535 19.1639 6.88185 20.1804 8.13135 20.1804C9.38085 20.1804 10.3974 19.1639 10.3974 17.9144C10.3974 16.6649 9.38079 15.6484 8.13135 15.6484ZM8.13135 19.2301C7.40585 19.2301 6.8156 18.6399 6.8156 17.9144C6.8156 17.1889 7.40585 16.5986 8.13135 16.5986C8.85685 16.5986 9.4471 17.1889 9.4471 17.9144C9.4471 18.6399 8.85685 19.2301 8.13135 19.2301Z" fill="#2B3990"/>
<path d="M10.2805 21.7373C9.03096 21.7373 8.01446 22.7538 8.01446 24.0033C8.01446 25.2528 9.03096 26.2693 10.2805 26.2693C11.53 26.2693 12.5465 25.2528 12.5465 24.0033C12.5465 22.7539 11.53 21.7373 10.2805 21.7373ZM10.2805 25.319C9.5549 25.319 8.96471 24.7288 8.96471 24.0033C8.96471 23.2778 9.55496 22.6875 10.2805 22.6875C11.006 22.6875 11.5963 23.2778 11.5963 24.0033C11.5963 24.7288 11.006 25.319 10.2805 25.319Z" fill="#2B3990"/>
<path d="M15.832 24.7818C14.5826 24.7818 13.566 25.7983 13.566 27.0478C13.566 28.2973 14.5825 29.3138 15.832 29.3138C17.0814 29.3138 18.098 28.2973 18.098 27.0478C18.098 25.7983 17.0815 24.7818 15.832 24.7818ZM15.832 28.3634C15.1065 28.3634 14.5163 27.7732 14.5163 27.0477C14.5163 26.3222 15.1065 25.7319 15.832 25.7319C16.5575 25.7319 17.1477 26.3222 17.1477 27.0477C17.1477 27.7733 16.5575 28.3634 15.832 28.3634Z" fill="#2B3990"/>
<path d="M21.7417 21.7373C20.4922 21.7373 19.4757 22.7538 19.4757 24.0033C19.4757 25.2528 20.4922 26.2693 21.7417 26.2693C22.9911 26.2693 24.0078 25.2528 24.0078 24.0033C24.0078 22.7538 22.9913 21.7373 21.7417 21.7373ZM21.7417 25.319C21.0162 25.319 20.4259 24.7288 20.4259 24.0033C20.4259 23.2778 21.0162 22.6875 21.7417 22.6875C22.4672 22.6875 23.0574 23.2778 23.0574 24.0033C23.0575 24.7288 22.4672 25.319 21.7417 25.319Z" fill="#2B3990"/>
<path d="M29.3809 4.20019C29.3411 3.94081 29.0985 3.76269 28.8393 3.8025C28.5799 3.84219 28.4019 4.08475 28.4416 4.34406C28.9126 7.41838 28.1969 9.26056 26.3153 9.82394L25.4486 9.46931L26.7945 7.37663C26.9364 7.15594 26.8726 6.86187 26.6519 6.72C26.4313 6.57806 26.1371 6.64188 25.9952 6.86263L24.5542 9.10338L24.1245 8.92756L24.6676 6.31938C24.7212 6.0625 24.5562 5.81087 24.2994 5.75737C24.0426 5.70381 23.7909 5.86875 23.7374 6.12569L23.2301 8.56162L22.5184 8.27038C22.0401 7.72713 21.8674 6.99469 22.0334 6.1955C22.2613 5.09837 23.0767 4.13431 24.1614 3.67956C25.9052 2.94844 27.0631 2.35262 27.7608 1.554C27.8624 1.86406 27.9769 2.23981 28.0869 2.658C28.1537 2.91175 28.4138 3.06331 28.6673 2.99662C28.921 2.92987 29.0726 2.67 29.0059 2.41619C28.6836 1.19138 28.3328 0.330938 28.3179 0.294937C28.2448 0.116437 28.0711 0 27.8783 0C27.8783 0 27.8782 0 27.8781 0C27.6853 6.25e-05 27.5116 0.11675 27.4386 0.295188C27.0723 1.19056 26.1866 1.8 23.794 2.80319C22.4247 3.37725 21.3936 4.603 21.1029 6.00219C20.8899 7.02775 21.1077 8.01888 21.6988 8.7695L18.9624 16.5079C18.8749 16.7553 19.0045 17.0268 19.2519 17.1143C19.4992 17.2017 19.7707 17.0721 19.8582 16.8248L20.1807 15.9126L22.6764 16.9338L22.4317 17.4577C22.3206 17.6954 22.4234 17.9782 22.6611 18.0893C22.7261 18.1196 22.7946 18.134 22.8618 18.134C23.0406 18.134 23.2119 18.0325 23.2926 17.8598L26.6256 10.7228C27.9323 10.3221 28.811 9.44069 29.2379 8.09825C29.5694 7.05606 29.6174 5.74456 29.3809 4.20019ZM23.0789 16.0718L20.4979 15.0156L22.5199 9.29769L23.39 9.65369C23.3901 9.65369 23.3901 9.65375 23.3902 9.65375L25.6452 10.5764L23.0789 16.0718Z" fill="#2B3990"/>
</svg>
