<svg width="32" height="32" viewBox="0 0 32 32" fill="none" xmlns="http://www.w3.org/2000/svg">
<path d="M22.7757 14.7383C18.2897 14.7383 14.6449 18.3832 14.6449 22.8692C14.6449 27.3551 18.2897 31 22.7757 31C27.2617 31 30.9065 27.3551 30.9065 22.8692C30.9065 18.2897 27.2617 14.7383 22.7757 14.7383ZM22.7757 29.0374C19.3178 29.0374 16.514 26.2336 16.514 22.7757C16.514 19.3178 19.3178 16.514 22.7757 16.514C26.2336 16.514 29.0374 19.3178 29.0374 22.7757C29.0374 26.2336 26.2336 29.0374 22.7757 29.0374ZM18.757 1H4.45794C2.49533 1 1 2.49533 1 4.45794V23.8037C1 25.6729 2.49533 27.2617 4.45794 27.2617H12.4953C13.0561 27.2617 13.4299 26.7944 13.4299 26.3271C13.4299 25.8598 13.0561 25.3925 12.4953 25.3925H4.45794C3.61682 25.2991 2.86916 24.6449 2.86916 23.7103V4.45794C2.86916 3.61682 3.61682 2.86916 4.45794 2.86916H18.757C19.5981 2.86916 20.3458 3.61682 20.3458 4.45794V12.028C20.3458 12.4953 20.7196 12.9626 21.2804 12.9626C21.7477 12.9626 22.215 12.4953 22.215 12.028V4.45794C22.215 2.49533 20.6262 1 18.757 1ZM17.5421 11H5.6729C5.20561 11 4.73832 11.3738 4.73832 11.9346C4.73832 12.4019 5.20561 12.8692 5.6729 12.8692H17.5421C18.0093 12.8692 18.4766 12.4019 18.4766 11.9346C18.4766 11.3738 18.0093 11 17.5421 11ZM12.4953 15.9533H5.6729C5.20561 15.9533 4.73832 16.4206 4.73832 16.8879C4.73832 17.3551 5.20561 17.8224 5.6729 17.8224H12.4953C13.0561 17.8224 13.4299 17.3551 13.4299 16.8879C13.4299 16.4206 13.0561 15.9533 12.4953 15.9533ZM11.2804 5.95327H5.6729C5.20561 5.95327 4.73832 6.42056 4.73832 6.88785C4.73832 7.4486 5.20561 7.82243 5.6729 7.82243H11.2804C11.7477 7.82243 12.215 7.4486 12.215 6.88785C12.215 6.42056 11.7477 5.95327 11.2804 5.95327Z" fill="#2B3990"/>
<path d="M27.1682 22.7757C27.1682 23.3365 26.7009 23.7103 26.2336 23.7103H23.7103V26.2337C23.7103 26.701 23.3364 27.1682 22.7757 27.1682C22.3084 27.1682 21.8411 26.701 21.8411 26.2337V23.7103H19.3178C18.757 23.7103 18.3832 23.3365 18.3832 22.7757C18.3832 22.3084 18.757 21.8411 19.3178 21.8411H21.8411V19.3178C21.8411 18.757 22.3084 18.3832 22.7757 18.3832C23.3364 18.3832 23.7103 18.757 23.7103 19.3178V21.8411H26.2336C26.7009 21.8411 27.1682 22.3084 27.1682 22.7757Z" fill="#2B3990"/>
</svg>
