<svg width="32" height="32" viewBox="0 0 32 32" fill="none" xmlns="http://www.w3.org/2000/svg">
<path d="M9.7858 14.3633C11.8984 14.3633 13.8815 15.1836 15.3762 16.666C16.8709 18.1484 17.6889 20.1289 17.6889 22.2324C17.6889 24.3359 16.865 26.3105 15.3762 27.7988C13.8874 29.2871 11.8984 30.1016 9.7858 30.1016C7.67321 30.1016 5.69007 29.2813 4.19537 27.7988C2.70067 26.3164 1.8827 24.3359 1.8827 22.2324C1.8827 20.1289 2.70655 18.1543 4.19537 16.666C5.68419 15.1777 7.67321 14.3633 9.7858 14.3633ZM9.7858 13.4902C4.93095 13.4902 1 17.4043 1 22.2324C1 27.0605 4.93095 30.9805 9.7858 30.9805C14.6406 30.9805 18.5657 27.0664 18.5657 22.2324C18.5657 17.3984 14.6348 13.4902 9.7858 13.4902ZM9.7858 19.4668C11.3217 19.4668 12.5692 20.709 12.5692 22.2383C12.5692 23.7676 11.3217 25.0098 9.7858 25.0098C8.2499 25.0098 7.00235 23.7617 7.00235 22.2324C7.00235 20.7031 8.2499 19.4668 9.7858 19.4668ZM9.7858 18.5879C7.76736 18.5879 6.12554 20.2168 6.12554 22.2324C6.12554 24.248 7.76148 25.877 9.7858 25.877C11.8101 25.877 13.4461 24.248 13.4461 22.2324C13.4461 20.2168 11.8042 18.5879 9.7858 18.5879ZM13.2107 10.748C13.2107 9.1543 14.57 7.86523 16.2001 7.98828C17.5594 8.08789 18.6599 9.17773 18.7658 10.5371C18.7893 10.8477 18.7599 11.1523 18.6893 11.4336C18.6187 11.709 18.8188 11.9785 19.1071 11.9785H19.1248C19.3189 11.9785 19.4955 11.8496 19.5426 11.6621C19.6367 11.2871 19.6779 10.8887 19.6485 10.4727C19.5073 8.64453 17.9949 7.19141 16.1589 7.11523C14.0639 7.02734 12.3397 8.69141 12.3397 10.7539C12.3397 11.0645 12.3809 11.3633 12.4516 11.6504C12.4986 11.8438 12.6752 11.9785 12.8752 11.9785C13.1636 11.9785 13.3696 11.709 13.2989 11.4336C13.2401 11.2051 13.2107 10.9824 13.2107 10.748ZM22.226 18.5879C21.8788 18.5879 21.5492 18.6348 21.2315 18.7227C21.2197 18.7227 21.2138 18.7285 21.202 18.7285C21.1903 18.7344 21.1785 18.7402 21.1667 18.752C21.0196 18.8223 20.9196 18.9746 20.9196 19.1445C20.9196 19.3086 21.0078 19.4492 21.1432 19.5254C21.2079 19.5605 21.2785 19.584 21.3609 19.584C21.3845 19.584 21.4139 19.584 21.4374 19.5781C21.4669 19.5664 21.4963 19.5605 21.5257 19.5547C21.7493 19.4961 21.9847 19.4668 22.2319 19.4668C23.7678 19.4668 25.0153 20.709 25.0153 22.2383C25.0153 23.7676 23.7678 25.0098 22.2319 25.0098C21.8611 25.0098 21.1667 24.8574 21.155 24.8867C20.9725 24.9395 20.8372 25.1094 20.8372 25.3086C20.8372 25.4023 20.8666 25.4844 20.9137 25.5547C20.9608 25.6191 21.0255 25.6777 21.0961 25.707C21.1314 25.7188 21.1667 25.7305 21.1962 25.7363C21.5257 25.8301 21.867 25.8828 22.226 25.8828C24.2503 25.8828 25.8862 24.2539 25.8862 22.2383C25.8862 20.2227 24.2503 18.5879 22.226 18.5879ZM22.226 13.4902C20.796 13.4902 19.4484 13.8301 18.2538 14.4336C18.1244 14.5098 18.0361 14.6504 18.0361 14.8086C18.0361 14.9668 18.1244 15.1074 18.2538 15.1836C18.3186 15.2246 18.3951 15.2422 18.4774 15.2422C18.5304 15.2422 18.5834 15.2305 18.6304 15.2129C18.6599 15.2012 18.6834 15.1836 18.7128 15.1719C19.7897 14.6387 20.9843 14.3574 22.2201 14.3574C24.3327 14.3574 26.3158 15.1777 27.8105 16.6602C29.3052 18.1426 30.1232 20.123 30.1232 22.2266C30.1232 24.3301 29.2993 26.3047 27.8105 27.793C26.3217 29.2812 24.3327 30.0957 22.2201 30.0957C20.9784 30.0957 19.778 29.8086 18.6952 29.2754C18.6304 29.2402 18.5598 29.2227 18.4833 29.2227C18.3951 29.2227 18.3127 29.2461 18.2479 29.293C18.1244 29.3691 18.0479 29.5039 18.0479 29.6621C18.0479 29.8145 18.1302 29.9551 18.2479 30.0313C18.2479 30.0313 18.2538 30.0313 18.2538 30.0371C18.2774 30.0488 18.3009 30.0605 18.3244 30.0723C19.4955 30.6523 20.8195 30.9746 22.2142 30.9746C27.0632 30.9746 31 27.0605 31 22.2266C31 17.3926 27.0808 13.4902 22.226 13.4902ZM15.9941 2C11.1452 2 7.20832 5.91406 7.20832 10.748C7.20832 11.1289 7.23186 11.5039 7.27893 11.8672C7.27893 11.873 7.27893 11.8789 7.27893 11.8848C7.28482 11.9141 7.2907 11.9434 7.29659 11.9668C7.35543 12.1367 7.5202 12.2598 7.70851 12.2598C7.90271 12.2598 8.06159 12.1367 8.12044 11.9668C8.13809 11.9199 8.14398 11.873 8.14398 11.8203C8.14398 11.8086 8.14398 11.791 8.14398 11.7793C8.14398 11.7793 8.14398 11.7793 8.14398 11.7734C8.0969 11.4336 8.07925 11.0879 8.07925 10.7422C8.07925 8.63867 8.9031 6.66406 10.3919 5.18164C11.8749 3.70508 13.8933 2.87305 15.9882 2.87305C18.1008 2.87305 20.084 3.69336 21.5728 5.17578C23.0675 6.66406 23.8854 8.63867 23.8854 10.7422C23.8854 11.0586 23.8678 11.3691 23.8325 11.6738C23.8266 11.7383 23.8148 11.7969 23.8089 11.8555C23.8089 11.8906 23.8207 11.9316 23.8325 11.9609C23.8913 12.1309 24.0561 12.2539 24.2444 12.2539C24.4386 12.2539 24.5975 12.1309 24.6563 11.9609H24.6681C24.674 11.9609 24.6799 11.9551 24.6799 11.9492C24.7328 11.5508 24.7623 11.1465 24.7623 10.7363C24.774 5.91406 20.8431 2 15.9941 2Z" fill="#2B3990" stroke="#2B3990" stroke-width="0.5"/>
</svg>
