<svg width="32" height="32" viewBox="0 0 32 32" fill="none" xmlns="http://www.w3.org/2000/svg">
<path d="M20.3699 14.7549C20.1909 14.7549 20.0332 14.8152 19.8985 14.9394C19.762 15.0617 19.6948 15.2178 19.6948 15.4074C19.6948 15.5971 19.762 15.7532 19.8985 15.8755C20.0332 15.9978 20.1909 16.0598 20.3699 16.0598C20.554 16.0598 20.7083 15.9978 20.834 15.8718C20.9597 15.7461 21.0217 15.5918 21.0217 15.4074C21.0217 15.2283 20.958 15.0742 20.8306 14.9465C20.7029 14.8188 20.5488 14.7549 20.3699 14.7549Z" fill="#2B3990"/>
<path d="M20.3699 17.1894C20.1909 17.1894 20.0349 17.2531 19.9021 17.3808C19.7693 17.5085 19.7019 17.6645 19.7019 17.8488C19.7019 18.0227 19.7656 18.1784 19.8933 18.3169C20.0261 18.4463 20.1856 18.51 20.3699 18.51C20.5488 18.51 20.7029 18.4463 20.8303 18.3169C20.958 18.1892 21.0217 18.0368 21.0217 17.8576C21.0217 17.6733 20.958 17.5156 20.8303 17.3842C20.7029 17.2551 20.5488 17.1894 20.3699 17.1894Z" fill="#2B3990"/>
<path d="M13.2795 14.0871H12.9199L12.927 13.3957C12.927 13.2275 12.8686 13.0891 12.7497 12.9809C12.6328 12.864 12.4966 12.8056 12.3442 12.8056C12.1794 12.8056 12.0412 12.8623 11.926 12.9775C11.8108 13.0927 11.7524 13.2326 11.7524 13.3957V14.0871H11.561C11.4123 14.0871 11.2846 14.1367 11.1784 14.2378C11.0703 14.3371 11.0173 14.4612 11.0173 14.6101C11.0173 14.7483 11.0669 14.8706 11.1697 14.977C11.2724 15.0852 11.4035 15.1384 11.561 15.1384H11.7612V17.6963C11.7612 17.7832 11.7754 17.8613 11.8037 17.9304C11.8303 17.9995 11.8728 18.0615 11.9297 18.1181C12.0429 18.2353 12.1794 18.2937 12.3442 18.2937C12.5124 18.2937 12.6523 18.2353 12.7622 18.1181C12.8721 17.9995 12.927 17.8593 12.927 17.6963L12.9199 15.1472H13.2724C13.4214 15.1472 13.5471 15.094 13.6516 14.9895C13.7561 14.885 13.8093 14.7607 13.8093 14.6172C13.8093 14.4685 13.758 14.3425 13.6553 14.2414C13.5542 14.1386 13.4285 14.0871 13.2795 14.0871Z" fill="#2B3990"/>
<path d="M10.119 14.0871H9.75762L9.76641 13.3957C9.76641 13.2275 9.70635 13.0891 9.58941 12.9809C9.47246 12.864 9.33599 12.8056 9.18364 12.8056C9.01885 12.8056 8.87896 12.8623 8.76543 12.9775C8.65044 13.0927 8.59185 13.2326 8.59185 13.3957V14.0871H8.40044C8.25176 14.0871 8.12407 14.1367 8.01616 14.2378C7.90971 14.3371 7.85478 14.4612 7.85478 14.6101C7.85478 14.7483 7.9063 14.8706 8.00908 14.977C8.11186 15.0852 8.24101 15.1384 8.40044 15.1384H8.59893V17.6963C8.59893 17.7832 8.61309 17.8613 8.64141 17.9304C8.66973 17.9995 8.71245 18.0615 8.76909 18.1181C8.88067 18.2353 9.01885 18.2937 9.18364 18.2937C9.35186 18.2937 9.49175 18.2353 9.60186 18.1181C9.71148 17.9995 9.76641 17.8593 9.76641 17.6963L9.75762 15.1472H10.1119C10.2591 15.1472 10.3865 15.094 10.491 14.9895C10.5955 14.885 10.6487 14.7607 10.6487 14.6172C10.6487 14.4685 10.5975 14.3425 10.4947 14.2414C10.3919 14.1386 10.2679 14.0871 10.119 14.0871Z" fill="#2B3990"/>
<path d="M5.86889 14.011C5.53563 14.011 5.23461 14.0889 4.96337 14.2485L4.79345 14.3638V12.8198C4.79345 12.6514 4.73485 12.5129 4.61791 12.4067C4.50463 12.2881 4.36645 12.2295 4.20336 12.2295C4.03881 12.2295 3.89867 12.2881 3.78173 12.4067C3.66308 12.5237 3.60473 12.6619 3.60473 12.8198V17.7107C3.60473 17.8701 3.66308 18.0085 3.78173 18.1255C3.89867 18.2424 4.03881 18.3027 4.20336 18.3027C4.36645 18.3027 4.50634 18.2441 4.62157 18.1289C4.73681 18.0137 4.79345 17.8755 4.79345 17.7107V15.6916C4.79345 15.5019 4.86254 15.3406 5.00072 15.2075C5.13891 15.0747 5.30541 15.009 5.50023 15.009C5.68456 15.009 5.84228 15.0764 5.97509 15.2129C6.10814 15.3476 6.17528 15.5107 6.17528 15.7004V17.7107C6.17528 17.8755 6.23388 18.0156 6.35082 18.1326C6.46947 18.2512 6.60936 18.3098 6.77416 18.3098C6.94262 18.3098 7.0808 18.2512 7.18871 18.1326C7.30565 18.0156 7.36425 17.8755 7.36425 17.7107V15.5071C7.36425 15.0676 7.24364 14.7219 7.00438 14.4719C6.70141 14.1633 6.32421 14.011 5.86889 14.011Z" fill="#2B3990"/>
<path d="M18.3677 15.0158C18.2827 14.8757 18.1782 14.7428 18.0542 14.6188C17.6662 14.2304 17.2021 14.0373 16.6599 14.0373C16.2632 14.0373 15.9016 14.1364 15.5739 14.3368C15.395 13.8918 14.4773 13.7714 14.4773 14.6327V19.3837C14.4773 19.5593 14.5356 19.6991 14.6526 19.8073C14.7712 19.9245 14.9113 19.9828 15.0761 19.9828C15.2444 19.9828 15.3791 19.9208 15.489 19.8073C15.604 19.6904 15.666 19.5556 15.666 19.3925V17.7441C15.969 17.9069 16.3003 17.9904 16.6599 17.9904C17.218 17.9904 17.6858 17.8007 18.0666 17.4196C18.4458 17.0402 18.6355 16.5722 18.6355 16.0138C18.6355 15.7743 18.5981 15.551 18.522 15.342C18.4865 15.2304 18.4333 15.1203 18.3677 15.0158ZM16.6404 16.8576C16.1604 16.8576 15.7722 16.4694 15.7722 15.9909C15.7722 15.5121 16.1604 15.1222 16.6404 15.1222C17.1186 15.1222 17.5068 15.5121 17.5068 15.9909C17.5068 16.4694 17.1189 16.8576 16.6404 16.8576Z" fill="#2B3990"/>
<path d="M29.2776 9.38159H28.251C27.124 7.24927 25.46 5.44531 23.4182 4.14819C21.2061 2.74292 18.6455 2 16.0134 2C14.9524 2 13.8987 2.11987 12.8813 2.35645C12.5452 2.43481 12.3362 2.77051 12.4143 3.10645C12.4924 3.44263 12.8281 3.65137 13.1643 3.57349C14.0889 3.3584 15.0474 3.24927 16.0134 3.24927C18.7959 3.24927 21.4124 4.14453 23.5393 5.73315H20.678C19.2932 5.73315 18.1665 6.86035 18.1665 8.24585C18.1665 8.64697 18.2654 9.03516 18.4424 9.38135H5.21021C6.15967 7.79541 7.45215 6.42725 8.9939 5.38867C9.28003 5.19604 9.35571 4.80786 9.16309 4.52173C8.97046 4.2356 8.58228 4.15991 8.2959 4.35254C6.39722 5.63135 4.84155 7.36475 3.77588 9.38135H2.72046C1.22046 9.38159 0 10.6025 0 12.1033V19.4387C0 20.9404 1.22046 22.1624 2.72046 22.1624H3.70117C4.38086 23.4861 5.26611 24.6868 6.32104 25.7227C6.32178 25.7231 6.32227 25.7239 6.323 25.7244C6.99561 26.3848 7.73706 26.9783 8.53784 27.4939C10.7668 28.929 13.3518 29.6875 16.0132 29.6875C18.6746 29.6875 21.2595 28.929 23.4885 27.4939C25.5464 26.1689 27.2117 24.3313 28.3252 22.1624H29.2776C30.7786 22.1624 32 20.9404 32 19.4387V12.1033C32 10.6025 30.7788 9.38159 29.2776 9.38159ZM19.416 8.24585C19.416 7.54932 19.9822 6.98267 20.678 6.98267H24.97C25.6711 7.69556 26.293 8.49878 26.8188 9.38159H20.1267C19.6978 9.17041 19.416 8.72681 19.416 8.24585ZM11.5771 22.1624C12.1497 22.2913 12.561 22.801 12.561 23.3936C12.561 24.0901 11.9949 24.6567 11.2988 24.6567H7.03271C6.30151 23.9148 5.65845 23.0786 5.12524 22.1624H11.5771ZM30.7505 19.4387C30.7505 20.2517 30.0898 20.9128 29.2776 20.9128H22.2886C21.9436 20.9128 21.6638 21.1926 21.6638 21.5376C21.6638 21.8826 21.9436 22.1624 22.2886 22.1624H26.9014C24.665 26.0049 20.4954 28.438 16.0134 28.438C13.2517 28.438 10.6089 27.5142 8.46338 25.9062H11.2991C12.6838 25.9062 13.8105 24.7791 13.8105 23.3936C13.8105 22.9495 13.6938 22.5283 13.488 22.1624H17.2961C17.6411 22.1624 17.9207 21.8826 17.9207 21.5376C17.9207 21.1926 17.6411 20.9128 17.2961 20.9128H11.6367C11.6357 20.9128 11.6348 20.9128 11.6335 20.9128H2.72046C1.90942 20.9128 1.24951 20.2517 1.24951 19.4387V12.1033C1.24951 11.2915 1.90942 10.6309 2.72046 10.6309H4.15479H4.15698H4.15869H19.9919C19.9932 10.6309 19.9944 10.6311 19.9958 10.6311C19.9966 10.6311 19.9976 10.6309 19.9983 10.6309H27.8679H27.8696H27.8718H29.2776C30.0898 10.6309 30.7505 11.2913 30.7505 12.1033V19.4387Z" fill="#2B3990"/>
<path d="M26.7195 12.6138L24.6502 17.758C24.6253 17.8183 24.6094 17.8823 24.6094 17.9477C24.6094 18.7331 25.5838 18.8537 25.8194 18.2422L27.8975 13.0852C27.9241 13.0268 27.9383 12.9595 27.9383 12.8887C27.9383 12.0696 26.9444 12.0022 26.7195 12.6138Z" fill="#2B3990"/>
<path d="M25.2454 12.7356C25.2454 11.9148 24.2498 11.8494 24.0264 12.459L21.9573 17.6053C21.9307 17.6656 21.9165 17.7293 21.9165 17.795C21.9165 18.5784 22.8909 18.699 23.1265 18.0874L25.2046 12.9307C25.2312 12.8721 25.2454 12.8049 25.2454 12.7356Z" fill="#2B3990"/>
<path d="M10.6333 4.3941C10.727 4.3941 10.8225 4.37286 10.9121 4.32818L10.9228 4.32281C11.2314 4.16851 11.3564 3.79327 11.2021 3.48467C11.0478 3.17608 10.6726 3.05083 10.364 3.20537L10.3533 3.2105C10.0447 3.36504 9.91966 3.74004 10.074 4.04864C10.1836 4.26763 10.404 4.3941 10.6333 4.3941Z" fill="#2B3990"/>
<path d="M19.8047 20.9126H19.7923C19.4473 20.9126 19.1675 21.1923 19.1675 21.5373C19.1675 21.8823 19.4473 22.1621 19.7923 22.1621H19.8047C20.1497 22.1621 20.4295 21.8823 20.4295 21.5373C20.4295 21.1923 20.1497 20.9126 19.8047 20.9126Z" fill="#2B3990"/>
</svg>
