<svg width="32" height="32" viewBox="0 0 32 32" fill="none" xmlns="http://www.w3.org/2000/svg">
<g clip-path="url(#clip0)">
<path d="M31.5224 19.8742C29.3891 28.4503 20.702 33.6643 12.1258 31.5224C3.55818 29.389 -1.65578 20.7019 0.477592 12.1343C2.61097 3.55815 11.2981 -1.65581 19.8657 0.477562C28.4419 2.61947 33.6558 11.298 31.5224 19.8742Z" fill="#F7F7F7"/>
<path d="M16 5.84509L15.8635 6.3059V19.7376L16 19.8742L22.2295 16.1877L16 5.84509Z" fill="#343434"/>
<path d="M16 5.84509L9.76202 16.1877L16 19.8742V13.3546V5.84509Z" fill="#8C8C8C"/>
<path d="M16 21.0518L15.9232 21.1457V25.933L16 26.1549L22.238 17.3739L16 21.0518Z" fill="#3C3C3B"/>
<path d="M16 26.1549V21.0518L9.76202 17.3739L16 26.1549Z" fill="#8C8C8C"/>
<path d="M16 19.8742L22.2294 16.1877L16 13.3546V19.8742Z" fill="#141414"/>
<path d="M9.76202 16.1877L16 19.8742V13.3546L9.76202 16.1877Z" fill="#393939"/>
</g>
<defs>
<clipPath id="clip0">
<rect width="32" height="32" fill="white"/>
</clipPath>
</defs>
</svg>
