<svg width="24" height="24" viewBox="0 0 24 24" fill="none" xmlns="http://www.w3.org/2000/svg">
<g clip-path="url(#clip0)">
<path d="M23.6418 14.9056C22.0418 21.3378 15.5265 25.2482 9.09436 23.6418C2.66864 22.0418 -1.24184 15.5265 0.358194 9.10073C1.95822 2.66861 8.47355 -1.24186 14.8993 0.358171C21.3314 1.9646 25.2419 8.47352 23.6418 14.9056Z" fill="white"/>
<path d="M11.9143 4L11.8067 4.36303V14.9445L11.9143 15.0521L16.8219 12.1479L11.9143 4Z" fill="#343434"/>
<path d="M11.9143 4L7 12.1479L11.9143 15.0521V9.91597V4Z" fill="#8C8C8C"/>
<path d="M11.9143 15.9799L11.8538 16.0538V19.8252L11.9143 20L16.8286 13.0824L11.9143 15.9799Z" fill="#3C3C3B"/>
<path d="M11.9143 20V15.9799L6.99999 13.0824L11.9143 20Z" fill="#8C8C8C"/>
<path d="M11.9143 15.0521L16.8218 12.1479L11.9143 9.91602V15.0521Z" fill="#141414"/>
<path d="M6.99999 12.1479L11.9143 15.0521V9.91602L6.99999 12.1479Z" fill="#393939"/>
</g>
<defs>
<clipPath id="clip0">
<rect width="24" height="24" fill="white"/>
</clipPath>
</defs>
</svg>
