<svg width="32" height="32" viewBox="0 0 32 32" fill="none" xmlns="http://www.w3.org/2000/svg">
<path fill-rule="evenodd" clip-rule="evenodd" d="M6.40675 9.25H5C4.44772 9.25 4 8.80228 4 8.25C4 7.69772 4.44772 7.25 5 7.25H6.40675C6.82853 5.94437 8.05398 5 9.5 5C10.946 5 12.1715 5.94437 12.5933 7.25H27C27.5523 7.25 28 7.69772 28 8.25C28 8.80228 27.5523 9.25 27 9.25H12.5933C12.1715 10.5556 10.946 11.5 9.5 11.5C8.05398 11.5 6.82853 10.5556 6.40675 9.25ZM7.75 8.25C7.75 7.2835 8.5335 6.5 9.5 6.5C10.4665 6.5 11.25 7.2835 11.25 8.25C11.25 9.2165 10.4665 10 9.5 10C8.5335 10 7.75 9.2165 7.75 8.25Z" fill="#2B3990"/>
<path fill-rule="evenodd" clip-rule="evenodd" d="M5 17.25H19.4458C19.8676 18.5556 21.093 19.5 22.5391 19.5C23.9851 19.5 25.2105 18.5556 25.6323 17.25H27C27.5523 17.25 28 16.8023 28 16.25C28 15.6977 27.5523 15.25 27 15.25H25.6323C25.2105 13.9444 23.9851 13 22.5391 13C21.093 13 19.8676 13.9444 19.4458 15.25H5C4.44772 15.25 4 15.6977 4 16.25C4 16.8023 4.44772 17.25 5 17.25ZM22.5391 14.5C21.5726 14.5 20.7891 15.2835 20.7891 16.25C20.7891 17.2165 21.5726 18 22.5391 18C23.5056 18 24.2891 17.2165 24.2891 16.25C24.2891 15.2835 23.5056 14.5 22.5391 14.5Z" fill="#2B3990"/>
<path fill-rule="evenodd" clip-rule="evenodd" d="M12.4067 25.25H5C4.44772 25.25 4 24.8023 4 24.25C4 23.6977 4.44772 23.25 5 23.25H12.4067C12.8285 21.9444 14.054 21 15.5 21C16.946 21 18.1715 21.9444 18.5933 23.25H27C27.5523 23.25 28 23.6977 28 24.25C28 24.8023 27.5523 25.25 27 25.25H18.5933C18.1715 26.5556 16.946 27.5 15.5 27.5C14.054 27.5 12.8285 26.5556 12.4067 25.25ZM13.75 24.25C13.75 23.2835 14.5335 22.5 15.5 22.5C16.4665 22.5 17.25 23.2835 17.25 24.25C17.25 25.2165 16.4665 26 15.5 26C14.5335 26 13.75 25.2165 13.75 24.25Z" fill="#2B3990"/>
</svg>
