<svg width="40" height="40" viewBox="0 0 40 40" fill="none" xmlns="http://www.w3.org/2000/svg">
<circle cx="20" cy="20" r="19.5" fill="white" stroke="#DDDDDD"/>
<path d="M28.0299 13.6772C27.0368 12.6097 25.6452 12.0024 24.1872 12.0001C22.7281 12.0018 21.335 12.6088 20.3404 13.6765L20.0014 14.0347L19.6624 13.6765C17.6888 11.5523 14.3669 11.4303 12.2427 13.404C12.1486 13.4915 12.0577 13.5823 11.9702 13.6765C9.87659 15.9347 9.87659 19.4247 11.9702 21.683L19.5033 29.627C19.7639 29.9022 20.1982 29.9139 20.4733 29.6533C20.4823 29.6448 20.4911 29.636 20.4996 29.627L28.0299 21.683C30.1234 19.425 30.1234 15.9352 28.0299 13.6772Z" fill="#EB5757"/>
</svg>
