<svg width="40" height="40" viewBox="0 0 40 40" fill="none" xmlns="http://www.w3.org/2000/svg">
<circle cx="20" cy="20" r="19.5" fill="white" stroke="#DDDDDD"/>
<path d="M28.0299 13.6772C27.0368 12.6097 25.6452 12.0024 24.1872 12.0001C22.7281 12.0018 21.335 12.6088 20.3404 13.6765L20.0014 14.0347L19.6624 13.6765C17.6888 11.5523 14.3669 11.4303 12.2427 13.404C12.1486 13.4915 12.0577 13.5823 11.9702 13.6765C9.87659 15.9347 9.87659 19.4247 11.9702 21.683L19.5033 29.627C19.7639 29.9022 20.1982 29.9139 20.4733 29.6533C20.4823 29.6448 20.4911 29.636 20.4996 29.627L28.0299 21.683C30.1234 19.425 30.1234 15.9352 28.0299 13.6772ZM27.037 20.7381H27.0363L20.0014 28.1579L12.9659 20.7381C11.3665 19.0126 11.3665 16.3462 12.9659 14.6207C14.4184 13.0464 16.8721 12.9477 18.4463 14.4002C18.5227 14.4707 18.5963 14.5443 18.6668 14.6207L19.5033 15.5031C19.7789 15.777 20.224 15.777 20.4996 15.5031L21.3361 14.6214C22.7885 13.0471 25.2422 12.9484 26.8165 14.4009C26.8929 14.4714 26.9664 14.5449 27.037 14.6214C28.6503 16.3496 28.6621 19.0209 27.037 20.7381Z" fill="#CCCCCC"/>
</svg>
