<svg width="32" height="32" viewBox="0 0 32 32" fill="none" xmlns="http://www.w3.org/2000/svg">
<path d="M31.5589 12.0766C31.5589 17.1492 28.0177 21.6475 23.0408 22.8917C22.7537 22.9874 22.658 23.0831 22.5623 23.3703C20.9352 27.8686 17.7769 30.4527 13.0871 30.9313C7.24889 31.6012 1.88919 27.2943 1.12352 21.4561C0.262142 15.7136 3.99479 10.3539 9.5459 9.10966C9.73731 9.10966 9.83302 9.01395 9.92873 8.72683C11.5558 4.22851 14.7142 1.54867 19.4039 1.07012C25.0507 0.400161 30.4104 4.61135 31.3675 10.2582C31.4632 10.8324 31.4632 11.5024 31.5589 12.0766ZM23.0408 21.4561C26.9649 20.5947 30.6975 16.4792 30.219 11.1195C29.7405 6.42981 25.8164 2.41005 20.6481 2.31434C18.1597 2.31434 15.9584 3.08001 14.0442 4.80277C12.8 5.95127 11.8429 7.29119 11.2687 8.91824C14.0442 8.82254 16.5326 9.4925 18.7339 11.1195C20.9352 12.7466 22.2752 14.9479 22.8494 17.6277C22.9451 17.6277 23.0408 17.532 23.0408 17.532C25.3379 16.3835 26.4864 14.4694 26.4864 11.9809C26.3906 9.39679 25.0507 7.57832 22.7537 6.52552C22.0837 6.2384 21.3181 6.14269 20.5524 6.04698C20.0739 6.04698 19.8824 5.75985 19.8824 5.37702C19.8824 4.99418 20.1696 4.80277 20.6481 4.80277C21.031 4.80277 21.4138 4.80277 21.7966 4.89848C24.7636 5.47273 26.7735 7.19549 27.6349 10.1625C28.4962 13.1294 27.6349 15.6179 25.4336 17.7235C24.7636 18.2977 23.9979 18.6805 23.1365 19.2548C23.0408 19.829 23.0408 20.6904 23.0408 21.4561ZM2.27203 19.9248C2.27203 25.2845 6.67463 29.6871 12.0343 29.6871C17.394 29.6871 21.7966 25.2845 21.7966 19.9248C21.7966 14.5651 17.394 10.1625 12.0343 10.1625C6.57892 10.1625 2.27203 14.5651 2.27203 19.9248Z" fill="#2B3990"/>
<path d="M29.549 26.433C29.549 27.8686 28.4005 29.0171 26.9649 29.0171C25.5293 29.0171 24.3808 27.8686 24.3808 26.433C24.3808 24.9973 25.5293 23.8488 26.9649 23.8488C28.4005 23.8488 29.549 24.9973 29.549 26.433ZM26.9649 27.6772C27.7306 27.6772 28.2091 27.1029 28.2091 26.3372C28.2091 25.5716 27.6349 25.093 26.8692 25.093C26.1035 25.093 25.625 25.6673 25.625 26.433C25.7207 27.1986 26.2949 27.6772 26.9649 27.6772Z" fill="#2B3990"/>
<path d="M6.77034 4.89848C6.77034 5.95128 5.90896 6.81266 4.85617 6.81266C3.80337 6.81266 2.94199 5.95128 2.94199 4.89848C2.94199 3.84569 3.80337 2.98431 4.85617 2.98431C5.90896 2.98431 6.77034 3.84569 6.77034 4.89848ZM4.85617 4.32423C4.47333 4.32423 4.1862 4.51565 4.1862 4.89848C4.1862 5.28132 4.47333 5.56844 4.85617 5.56844C5.239 5.56844 5.52613 5.28132 5.52613 4.99419C5.52613 4.61136 5.239 4.32423 4.85617 4.32423Z" fill="#2B3990"/>
<path d="M2.84628 8.82253C3.22912 8.82253 3.51624 9.10966 3.51624 9.49249C3.51624 9.87533 3.22912 10.1625 2.84628 10.1625C2.46345 10.1625 2.17632 9.87533 2.17632 9.49249C2.27203 9.10966 2.55915 8.82253 2.84628 8.82253Z" fill="#2B3990"/>
<path d="M30.889 21.2647C30.889 21.6475 30.6018 21.9346 30.219 21.9346C29.8362 21.9346 29.549 21.6475 29.549 21.2647C29.549 20.8818 29.8362 20.5947 30.219 20.5947C30.6018 20.5947 30.889 20.8818 30.889 21.2647Z" fill="#2B3990"/>
<path d="M22.4666 27.6772C22.8494 27.6772 23.1365 27.9643 23.1365 28.3471C23.1365 28.73 22.8494 29.0171 22.4666 29.0171C22.0837 29.0171 21.7966 28.73 21.7966 28.3471C21.7966 27.9643 22.0837 27.6772 22.4666 27.6772Z" fill="#2B3990"/>
<path d="M4.1862 29.6871C4.1862 30.0699 3.89908 30.357 3.51624 30.357C3.13341 30.357 2.84628 29.9742 2.84628 29.6871C2.84628 29.3042 3.13341 29.0171 3.51624 29.0171C3.89908 29.0171 4.1862 29.3042 4.1862 29.6871Z" fill="#2B3990"/>
<path d="M9.35448 4.32422C9.73731 4.32422 10.0244 4.61135 10.0244 4.99418C10.0244 5.37702 9.73731 5.66414 9.35448 5.66414C8.97164 5.66414 8.68452 5.37702 8.68452 4.99418C8.78023 4.61135 9.06735 4.32422 9.35448 4.32422Z" fill="#2B3990"/>
<path d="M12.0343 27.2943C8.01456 27.2943 4.66475 24.0402 4.66475 20.0205C4.66475 16.0007 7.91885 12.6509 11.9386 12.6509C15.9584 12.6509 19.3082 15.905 19.3082 19.9248C19.3082 23.9445 16.1498 27.1986 12.0343 27.2943ZM18.064 19.9248C18.064 16.6707 15.3841 13.8951 12.0343 13.8951C8.68452 13.8951 6.00467 16.5749 6.00467 19.829C6.00467 23.1789 8.58881 25.8587 11.9386 25.9544C15.2884 25.9544 17.9683 23.2746 18.064 19.9248Z" fill="#2B3990"/>
<path d="M15.2884 19.9248C15.2884 20.3076 15.0013 20.5947 14.7142 20.5947C13.6614 20.5947 12.7043 21.4561 12.7043 22.6046C12.7043 22.9874 12.4172 23.2746 12.0343 23.2746C11.6515 23.2746 11.4601 22.9874 11.3644 22.6046C11.3644 21.9346 11.0772 21.4561 10.5987 21.0733C10.3116 20.8818 9.92873 20.7861 9.54589 20.6904C9.06735 20.5947 8.78022 20.4033 8.78022 20.0205C8.78022 19.6376 9.06735 19.3505 9.54589 19.3505C10.5987 19.2548 11.2687 18.4891 11.3644 17.532C11.3644 17.0535 11.6515 16.7664 12.0343 16.7664C12.4172 16.7664 12.6086 17.0535 12.7043 17.532C12.8 18.5848 13.5657 19.3505 14.5228 19.3505C15.0013 19.2548 15.2884 19.5419 15.2884 19.9248ZM11.4601 19.9248C11.6515 20.1162 11.8429 20.3076 12.0343 20.499C12.2257 20.3076 12.4172 20.1162 12.6086 19.9248C12.4172 19.7333 12.2257 19.5419 12.0343 19.3505C11.8429 19.5419 11.6515 19.7333 11.4601 19.9248Z" fill="#2B3990"/>
</svg>
