<svg width="32" height="32" viewBox="0 0 32 32" fill="none" xmlns="http://www.w3.org/2000/svg">
<path d="M29.4877 2H2.59832C1.75215 2 1 2.75215 1 3.59832V5.10262C1 5.38468 1.18804 5.57272 1.47009 5.57272C1.75215 5.57272 1.94019 5.38468 1.94019 5.10262V3.59832C1.94019 3.22225 2.31626 2.84617 2.69234 2.84617H29.5817C29.9578 2.84617 30.3339 3.22225 30.3339 3.59832V22.6842C30.3339 23.0602 29.9578 23.4363 29.5817 23.4363H2.59832C2.22225 23.4363 1.84617 23.0602 1.84617 22.6842V7.17104C1.84617 6.88898 1.65813 6.70095 1.37608 6.70095C1.09402 6.70095 1 6.88898 1 7.17104V22.7782C1 23.6243 1.75215 24.3765 2.59832 24.3765H11.6241L10.6839 27.3851H10.2139C9.4617 27.3851 8.89759 27.9492 8.89759 28.7014C8.89759 29.4535 9.4617 30.0176 10.2139 30.0176H21.8722C22.6243 30.0176 23.1885 29.4535 23.1885 28.7014C23.1885 27.9492 22.6243 27.3851 21.8722 27.3851H21.3081L20.3679 24.3765H29.3937C30.2399 24.3765 30.992 23.6243 30.992 22.7782V3.59832C31.0861 2.75215 30.3339 2 29.4877 2ZM20.3679 27.3851H19.5217C19.2397 27.3851 19.0516 27.5731 19.0516 27.8552C19.0516 28.1373 19.2397 28.3253 19.5217 28.3253H21.8722C22.1543 28.3253 22.3423 28.5133 22.3423 28.7954C22.3423 29.0774 22.1543 29.2655 21.8722 29.2655H10.2139C9.9318 29.2655 9.74376 29.0774 9.74376 28.7954C9.74376 28.5133 9.9318 28.2313 10.2139 28.2313H17.5473C17.8294 28.2313 18.0174 28.0432 18.0174 27.7612C18.0174 27.4791 17.8294 27.2911 17.5473 27.2911H11.7182L12.6583 24.2825H19.6157L20.3679 27.3851Z" fill="#2B3990"/>
<path d="M28.5475 22.5901C28.9236 22.5901 29.2997 22.2141 29.2997 21.838V4.53851C29.2997 4.16243 28.9236 3.78635 28.5475 3.78635H3.53851C3.06842 3.78635 2.78636 4.16243 2.78636 4.53851V21.838C2.78636 22.2141 3.16244 22.5901 3.53851 22.5901H28.5475ZM3.63253 6.41888H9.08563V21.744H3.63253V6.41888ZM28.4535 6.41888V19.9576H9.9318V6.41888H28.4535ZM9.9318 21.744V20.8978H28.4535V21.744H9.9318ZM28.4535 4.63252V5.47869H3.63253V4.63252H28.4535Z" fill="#2B3990"/>
<path d="M18.5815 14.8806H18.7696V16.0088C18.7696 16.2909 18.9576 16.4789 19.2397 16.4789C19.5217 16.4789 19.7098 16.2909 19.7098 16.0088V14.7866H19.8038C20.1799 14.7866 20.5559 14.4105 20.5559 14.0344V9.70956C20.5559 9.33348 20.1799 8.95741 19.8038 8.95741H19.6157V7.73516C19.6157 7.45311 19.4277 7.26507 19.1457 7.26507C18.8636 7.26507 18.7696 7.54712 18.7696 7.73516V8.95741H18.5815C18.2055 8.95741 17.8294 9.33348 17.8294 9.70956V14.1284C17.8294 14.5045 18.2055 14.8806 18.5815 14.8806ZM18.7696 9.80358H19.6157V13.9404H18.7696V9.80358Z" fill="#2B3990"/>
<path d="M25.633 17.5131H25.821V18.7354C25.821 19.0174 26.009 19.2055 26.2911 19.2055C26.5731 19.2055 26.7612 19.0174 26.7612 18.7354V17.5131H26.9492C27.3253 17.5131 27.7014 17.1371 27.7014 16.761V14.4105C27.7014 14.0344 27.3253 13.6584 26.9492 13.6584H26.7612V12.4361C26.7612 12.154 26.5731 11.966 26.2911 11.966C26.009 11.966 25.821 12.154 25.821 12.4361V13.6584H25.633C25.2569 13.6584 24.8808 14.0344 24.8808 14.4105V16.761C24.8808 17.1371 25.2569 17.5131 25.633 17.5131ZM25.821 14.5045H26.6672V16.5729H25.821V14.5045Z" fill="#2B3990"/>
<path d="M22.1543 14.5045H22.3423V15.7268C22.3423 16.0088 22.5303 16.1969 22.8124 16.1969C23.0944 16.1969 23.2825 16.0088 23.2825 15.7268V14.5045H23.4705C23.8466 14.5045 24.2227 14.1284 24.2227 13.7524V11.3079C24.2227 10.9318 23.8466 10.5557 23.4705 10.5557H23.2825V9.33347C23.2825 9.05142 23.0944 8.86338 22.8124 8.86338C22.5303 8.86338 22.3423 9.05142 22.3423 9.33347V10.5557H22.1543C21.7782 10.5557 21.4021 10.9318 21.4021 11.3079V13.8464C21.4021 14.2225 21.6842 14.5045 22.1543 14.5045ZM22.2483 11.4019H23.0944V13.6583H22.2483V11.4019Z" fill="#2B3990"/>
<path d="M15.1028 16.3849H15.2909V17.6071C15.2909 17.8892 15.4789 18.0772 15.761 18.0772C16.043 18.0772 16.2311 17.8892 16.2311 17.6071V16.3849H16.4191C16.7952 16.3849 17.1712 16.0088 17.1712 15.6327V13.4703C17.1712 13.0942 16.7952 12.7182 16.4191 12.7182H16.2311V11.4959C16.2311 11.2139 16.043 11.0258 15.761 11.0258C15.4789 11.0258 15.2909 11.2139 15.2909 11.4959V12.7182H15.1028C14.7268 12.7182 14.3507 13.0942 14.3507 13.4703V15.6327C14.3507 16.1028 14.6327 16.3849 15.1028 16.3849ZM15.1969 13.7524H16.043V15.5387H15.1969V13.7524Z" fill="#2B3990"/>
<path d="M11.5301 17.5131H11.7182V18.7354C11.7182 19.0174 11.9062 19.2055 12.1883 19.2055C12.4703 19.2055 12.6583 19.0174 12.6583 18.7354V17.5131H12.8464C13.2225 17.5131 13.5985 17.137 13.5985 16.761V15.5387C13.5985 15.1626 13.2225 14.7866 12.8464 14.7866H12.6583V13.5643C12.6583 13.2823 12.4703 13.0942 12.1883 13.0942C11.9062 13.0942 11.7182 13.2823 11.7182 13.5643V14.7866H11.5301C11.154 14.7866 10.778 15.1626 10.778 15.5387V16.761C10.778 17.137 11.154 17.5131 11.5301 17.5131ZM11.7182 15.7268H12.5643V16.5729H11.7182V15.7268Z" fill="#2B3990"/>
<path d="M6.54711 18.6413H4.94879C4.66673 18.6413 4.4787 18.8294 4.4787 19.1114C4.4787 19.3935 4.66673 19.5815 4.94879 19.5815H6.54711C6.82917 19.5815 7.01721 19.3935 7.01721 19.1114C7.01721 18.8294 6.82917 18.6413 6.54711 18.6413Z" fill="#2B3990"/>
<path d="M7.76936 16.949H4.94879C4.66673 16.949 4.4787 17.137 4.4787 17.4191C4.4787 17.7011 4.66673 17.8892 4.94879 17.8892H7.67534C7.9574 17.8892 8.14543 17.7011 8.14543 17.4191C8.14543 17.137 7.9574 16.949 7.76936 16.949Z" fill="#2B3990"/>
<path d="M4.94879 16.0088H6.54711C6.82917 16.0088 7.01721 15.8208 7.01721 15.5387C7.01721 15.2567 6.82917 15.0686 6.54711 15.0686H4.94879C4.66673 15.0686 4.4787 15.2567 4.4787 15.5387C4.4787 15.8208 4.76075 16.0088 4.94879 16.0088Z" fill="#2B3990"/>
<path d="M7.76936 13.3763H4.94879C4.66673 13.3763 4.4787 13.5643 4.4787 13.8464C4.4787 14.1284 4.66673 14.3165 4.94879 14.3165H7.67534C7.9574 14.3165 8.14543 14.1284 8.14543 13.8464C8.14543 13.5643 7.9574 13.3763 7.76936 13.3763Z" fill="#2B3990"/>
<path d="M7.76936 11.5899H4.94879C4.66673 11.5899 4.4787 11.778 4.4787 12.06C4.4787 12.3421 4.66673 12.5301 4.94879 12.5301H7.67534C7.9574 12.5301 8.14543 12.3421 8.14543 12.06C8.14543 11.778 7.9574 11.5899 7.76936 11.5899Z" fill="#2B3990"/>
<path d="M4.9488 10.7438H6.54712C6.82918 10.7438 7.01721 10.5557 7.01721 10.2737C7.01721 9.9916 6.82918 9.89758 6.54712 9.89758H4.9488C4.76076 9.89758 4.57272 10.0856 4.57272 10.2737C4.57272 10.4617 4.76076 10.7438 4.9488 10.7438Z" fill="#2B3990"/>
<path d="M4.9488 8.9574H7.67535C7.9574 8.9574 8.14544 8.76936 8.14544 8.4873C8.14544 8.20525 7.9574 8.11123 7.76936 8.11123H4.9488C4.76076 8.11123 4.57272 8.29927 4.57272 8.58132C4.57272 8.76936 4.76076 8.9574 4.9488 8.9574Z" fill="#2B3990"/>
</svg>
