<svg width="15" height="24" viewBox="0 0 15 24" fill="none" xmlns="http://www.w3.org/2000/svg">
<path d="M10.2619 12.0051L1.28358 3.02634C1.03636 2.77971 0.900362 2.44995 0.900362 2.09834C0.900362 1.74654 1.03636 1.41698 1.28358 1.16995L2.07031 0.38361C2.31714 0.136195 2.64709 0 2.9987 0C3.35031 0 3.67987 0.136195 3.9269 0.38361L14.617 11.0736C14.865 11.3214 15.0008 11.6525 14.9999 12.0045C15.0008 12.358 14.8652 12.6888 14.617 12.9368L3.93685 23.6164C3.68983 23.8638 3.36026 24 3.00846 24C2.65685 24 2.32729 23.8638 2.08007 23.6164L1.29353 22.83C0.781728 22.3182 0.781728 21.4851 1.29353 20.9735L10.2619 12.0051Z" fill="#141626"/>
</svg>
