<svg width="32" height="32" viewBox="0 0 32 32" fill="none" xmlns="http://www.w3.org/2000/svg">
<path d="M1 11.9529C1.09599 11.365 1.16198 10.777 1.28797 10.1951C2.30786 5.50358 6.10545 1.91597 10.8329 1.15405C17.1623 0.134163 23.0656 4.27972 24.2655 10.585C24.2955 10.759 24.3315 10.933 24.3375 11.107C24.3555 11.3829 24.1995 11.5749 23.9535 11.6109C23.6956 11.6469 23.4856 11.5209 23.4256 11.257C23.1856 10.1231 22.5917 9.16919 21.8538 8.31728C20.1979 6.41549 18.1342 5.59957 15.6144 6.19951C15.5364 6.21751 15.4644 6.2475 15.3864 6.2715C15.7704 6.72745 16.1604 7.15941 16.5203 7.62136C17.7682 9.22318 18.6141 11.017 19.118 12.9848C19.13 13.0208 19.136 13.0628 19.142 13.0988C19.202 13.3927 19.0761 13.6327 18.8241 13.7047C18.5601 13.7767 18.3321 13.6267 18.2301 13.3207C18.0022 12.6188 17.8102 11.8989 17.5282 11.215C16.8683 9.58314 15.8964 8.1553 14.6545 6.90743C14.5945 6.84744 14.5285 6.78745 14.4505 6.71545C13.3887 7.41738 12.6087 8.34128 12.0868 9.49315C11.2109 11.4309 10.9889 13.4647 11.1869 15.5645C11.3549 17.3823 11.8588 19.1041 12.6627 20.7419C12.8187 21.0539 12.7467 21.3239 12.4948 21.4499C12.2428 21.5758 11.9908 21.4859 11.8468 21.1919C10.179 17.7303 9.66906 14.1487 10.7429 10.4111C11.2529 8.64724 12.1948 7.15341 13.7606 6.04353C13.2987 5.71356 12.8667 5.3956 12.4228 5.10163C12.3508 5.05363 12.1828 5.10163 12.0928 5.15562C9.3811 6.72745 7.41331 8.97121 6.24343 11.8749C5.06756 14.8026 4.94158 17.7963 5.83548 20.8259C5.88347 20.9939 6.02746 21.1619 6.17144 21.2699C7.73127 22.4758 9.49508 23.1717 11.4449 23.4296C11.8168 23.4776 12.0028 23.6756 11.9668 23.9636C11.9248 24.2576 11.6728 24.4015 11.2949 24.3476C7.5213 23.8136 4.62961 21.9238 2.64382 18.6722C1.71992 17.1603 1.20398 15.4985 1.05399 13.7287C1.04799 13.6447 1.018 13.5607 1 13.4767C1 12.9668 1 12.4628 1 11.9529ZM11.3249 4.4417C11.0609 4.31571 10.8029 4.20772 10.557 4.06974C10.347 3.94975 10.179 3.95575 9.97503 4.10573C9.74706 4.27372 9.49508 4.3997 9.23711 4.51969C7.85126 5.17962 6.36942 5.44959 4.85758 5.62957C4.7016 5.64757 4.52162 5.73756 4.41963 5.85155C1.38996 9.46316 1.10799 14.7606 3.7357 18.6722C3.98168 19.0381 4.25765 19.3861 4.55162 19.776C3.62172 13.2188 5.86548 8.1433 11.3249 4.4417ZM13.3107 4.53169C13.7306 4.86765 14.1266 5.19762 14.5345 5.50958C14.5765 5.54558 14.6785 5.52758 14.7445 5.50358C16.6163 4.79566 18.4401 4.92165 20.2039 5.82755C20.7079 6.08552 21.1818 6.41549 21.6678 6.70945C21.6558 6.69146 21.6438 6.66146 21.6258 6.63146C20.7259 5.3416 19.61 4.27372 18.2541 3.4758C18.1522 3.41581 18.0142 3.38581 17.8942 3.39781C17.3962 3.44581 16.9043 3.4878 16.4123 3.57179C15.3445 3.75777 14.3126 4.07574 13.3107 4.53169ZM11.0489 3.25383C11.3969 3.43381 11.7748 3.61979 12.1348 3.82377C12.2908 3.91376 12.4048 3.89576 12.5668 3.83576C13.2207 3.56579 13.8806 3.28982 14.5525 3.06785C15.1405 2.87587 15.7584 2.74988 16.4063 2.5819C14.8045 2.01796 13.2147 1.80198 11.6309 1.98796C11.4269 2.44391 11.2409 2.84587 11.0489 3.25383ZM5.70349 4.4597C5.72749 4.49569 5.74549 4.52569 5.76949 4.56169C6.92136 4.3877 8.03124 4.08174 9.15312 3.5178C8.65517 3.39181 8.24122 3.28382 7.82726 3.18183C7.77327 3.16984 7.70728 3.17584 7.65928 3.20583C7.00535 3.61979 6.35142 4.03974 5.70349 4.4597ZM9.11712 2.5339C9.45309 2.64789 9.70506 2.73788 9.96903 2.81587C10.017 2.82787 10.113 2.80987 10.143 2.76788C10.281 2.5879 10.407 2.40192 10.533 2.21594C10.515 2.19194 10.497 2.17394 10.479 2.14995C10.047 2.27593 9.62107 2.39592 9.11712 2.5339ZM16.3643 31.0068C15.7644 30.9288 15.1645 30.8748 14.5705 30.7669C14.0846 30.6829 13.5926 30.5629 13.1247 30.4009C12.9627 30.3469 12.7947 30.1429 12.7467 29.9749C12.2068 28.1451 12.0568 26.2793 12.3088 24.3835C12.6807 21.6238 13.7846 19.2061 15.6264 17.1183C17.4322 15.0726 19.592 13.5427 22.2317 12.7568C24.8054 11.9889 27.3852 11.9829 29.9709 12.7088C30.2468 12.7868 30.3968 12.9368 30.4688 13.2128C31.7827 18.2822 30.6608 22.7277 27.0852 26.5553C25.2974 28.4691 23.1556 29.825 20.6179 30.4849C19.724 30.7189 17.6542 30.9828 17.5402 31.0008C17.1443 31.0068 16.7543 31.0068 16.3643 31.0068ZM13.2447 24.4675C13.2327 24.5095 13.2147 24.5575 13.2087 24.5995C13.0167 26.2253 13.1127 27.8332 13.5566 29.417C13.5806 29.513 13.7066 29.615 13.8086 29.645C15.3924 30.0889 17.0003 30.1849 18.6261 29.9809C21.0018 29.681 23.1016 28.7271 24.9614 27.2272C27.2112 25.4094 28.825 23.1657 29.6229 20.364C29.6769 20.166 29.6589 20.022 29.5449 19.848C28.2251 17.8503 26.5992 16.1344 24.7274 14.6406C24.4215 14.4006 24.3615 14.1187 24.5535 13.8907C24.7394 13.6627 25.0034 13.6627 25.3034 13.8967C26.9892 15.2345 28.477 16.7584 29.7549 18.4922C29.8089 18.5642 29.8689 18.6362 29.9529 18.7382C30.1989 17.0523 30.0789 15.4385 29.6829 13.8367C29.6289 13.6267 29.5269 13.5307 29.3289 13.4767C27.3552 12.9608 25.3754 12.9248 23.3836 13.3807C20.8699 13.9567 18.7761 15.2585 16.9703 17.0643C15.3505 18.6782 14.2226 20.574 13.5806 22.7637C13.5206 22.9677 13.5326 23.1297 13.6706 23.2977C14.4206 24.2336 15.1105 25.2235 15.9144 26.1114C16.6643 26.9333 17.5282 27.6412 18.3501 28.3971C18.3921 28.4391 18.4401 28.4691 18.4821 28.5111C18.7221 28.7271 18.7581 28.9971 18.5721 29.207C18.3981 29.405 18.1162 29.435 17.8942 29.231C17.0183 28.4391 16.1184 27.6712 15.2905 26.8313C14.5645 26.0994 13.9346 25.2715 13.2447 24.4675ZM24.5235 19.3981C24.5895 19.4761 24.6674 19.5721 24.7514 19.6681C24.8354 19.764 24.9314 19.848 25.0214 19.938C25.2554 20.16 25.5254 20.178 25.7233 19.986C25.9213 19.794 25.9153 19.5181 25.6933 19.2841C25.5074 19.0981 25.3094 18.9301 25.0694 18.7082C25.3874 18.4142 25.6633 18.1622 25.9273 17.9042C26.1913 17.6403 26.2093 17.3703 25.9933 17.1603C25.7893 16.9683 25.5134 16.9923 25.2734 17.2383C25.0154 17.5023 24.7634 17.7723 24.4575 18.0962C24.2295 17.8443 24.0495 17.6283 23.8515 17.4243C23.5996 17.1723 23.3356 17.1603 23.1316 17.3703C22.9336 17.5743 22.9516 17.8503 23.1976 18.0902C23.4016 18.2882 23.6236 18.4622 23.7915 18.6122C23.3116 19.0921 22.8916 19.5061 22.4477 19.944C22.2857 19.77 22.1057 19.5661 21.9137 19.3741C21.6798 19.1461 21.4098 19.1281 21.2118 19.3141C21.0018 19.5121 21.0078 19.794 21.2538 20.034C21.4518 20.232 21.6738 20.406 21.8478 20.556C21.3678 21.0359 20.9538 21.4499 20.5039 21.8938C20.3419 21.7198 20.1619 21.5159 19.97 21.3239C19.736 21.0959 19.466 21.0779 19.268 21.2639C19.0581 21.4619 19.0701 21.7438 19.31 21.9838C19.508 22.1818 19.718 22.3678 19.874 22.5177C19.418 22.9737 18.9981 23.3877 18.5541 23.8376C18.3981 23.6696 18.2181 23.4596 18.0202 23.2677C17.7742 23.0277 17.4982 23.0157 17.3002 23.2257C17.1143 23.4237 17.1323 23.6936 17.3662 23.9276C17.5642 24.1256 17.7742 24.3116 17.9662 24.4915C17.9242 24.5635 17.9182 24.5875 17.9062 24.5995C17.6962 24.8155 17.4802 25.0315 17.2642 25.2415C16.9223 25.5894 16.8683 25.8354 17.0903 26.0634C17.3182 26.2973 17.5882 26.2433 17.9362 25.8894C18.1581 25.6614 18.3741 25.4214 18.5721 25.2055C18.6441 25.2355 18.6561 25.2355 18.6621 25.2415C18.8361 25.4094 19.0101 25.5834 19.184 25.7514C19.436 25.9914 19.706 26.0154 19.904 25.8114C20.1079 25.6074 20.0959 25.3374 19.844 25.0915C19.658 24.9115 19.442 24.7615 19.262 24.6115C19.76 24.1136 20.1739 23.6996 20.6239 23.2497C20.7859 23.4237 20.9478 23.6216 21.1278 23.8016C21.3798 24.0536 21.6438 24.0716 21.8478 23.8616C22.0517 23.6576 22.0397 23.3877 21.7878 23.1417C21.6018 22.9617 21.3918 22.7997 21.2238 22.6617C21.7038 22.1758 22.1117 21.7618 22.5497 21.3179C22.7297 21.5039 22.9096 21.7078 23.1076 21.8938C23.3356 22.1098 23.5876 22.1218 23.7855 21.9298C23.9835 21.7438 23.9835 21.4559 23.7555 21.2279C23.5636 21.0359 23.3476 20.8679 23.1796 20.7179C23.6596 20.268 24.0795 19.848 24.5235 19.3981Z" fill="#2B3990"/>
</svg>
