<svg width="32" height="32" viewBox="0 0 32 32" fill="none" xmlns="http://www.w3.org/2000/svg">
<path d="M6.99998 14.4999V22.9999C6.99998 23.1325 7.05266 23.2597 7.14643 23.3535C7.2402 23.4472 7.36737 23.4999 7.49998 23.4999H29V22.4999H7.99998V14.4999H6.99998Z" fill="#2B3990"/>
<path d="M9.00001 18.5V21C9.00001 21.1326 9.05269 21.2598 9.14646 21.3535C9.24022 21.4473 9.3674 21.5 9.50001 21.5H11.5C11.6326 21.5 11.7598 21.4473 11.8536 21.3535C11.9473 21.2598 12 21.1326 12 21V18.5C12 18.3674 11.9473 18.2402 11.8536 18.1464C11.7598 18.0526 11.6326 18 11.5 18H9.50001C9.3674 18 9.24022 18.0526 9.14646 18.1464C9.05269 18.2402 9.00001 18.3674 9.00001 18.5ZM10 19H11V20.5H10V19Z" fill="#2B3990"/>
<path d="M13.5 16C13.3674 16 13.2402 16.0527 13.1465 16.1464C13.0527 16.2402 13 16.3674 13 16.5V21C13 21.1326 13.0527 21.2598 13.1465 21.3536C13.2402 21.4473 13.3674 21.5 13.5 21.5H15.5C15.6326 21.5 15.7598 21.4473 15.8536 21.3536C15.9473 21.2598 16 21.1326 16 21V16.5C16 16.3674 15.9473 16.2402 15.8536 16.1464C15.7598 16.0527 15.6326 16 15.5 16H13.5ZM15 20.5H14V17H15V20.5Z" fill="#2B3990"/>
<path d="M17.5 18C17.3674 18 17.2402 18.0526 17.1464 18.1464C17.0527 18.2402 17 18.3674 17 18.5V21C17 21.1326 17.0527 21.2598 17.1464 21.3535C17.2402 21.4473 17.3674 21.5 17.5 21.5H19.5C19.6326 21.5 19.7598 21.4473 19.8536 21.3535C19.9473 21.2598 20 21.1326 20 21V18.5C20 18.3674 19.9473 18.2402 19.8536 18.1464C19.7598 18.0526 19.6326 18 19.5 18H17.5ZM19 20.5H18V19H19V20.5Z" fill="#2B3990"/>
<path d="M21.5 16C21.3674 16 21.2402 16.0527 21.1464 16.1464C21.0527 16.2402 21 16.3674 21 16.5V21C21 21.1326 21.0527 21.2598 21.1464 21.3536C21.2402 21.4473 21.3674 21.5 21.5 21.5H23.5C23.6326 21.5 23.7598 21.4473 23.8535 21.3536C23.9473 21.2598 24 21.1326 24 21V16.5C24 16.3674 23.9473 16.2402 23.8535 16.1464C23.7598 16.0527 23.6326 16 23.5 16H21.5ZM23 20.5H22V17H23V20.5Z" fill="#2B3990"/>
<path d="M25 13.9999V20.9999C25 21.1325 25.0527 21.2597 25.1464 21.3535C25.2402 21.4472 25.3674 21.4999 25.5 21.4999H27.5C27.6326 21.4999 27.7598 21.4472 27.8535 21.3535C27.9473 21.2597 28 21.1325 28 20.9999V13.9999C28 13.8673 27.9473 13.7401 27.8535 13.6464C27.7598 13.5526 27.6326 13.4999 27.5 13.4999H25.5C25.3674 13.4999 25.2402 13.5526 25.1464 13.6464C25.0527 13.7401 25 13.8673 25 13.9999ZM26 14.4999H27V20.4999H26V14.4999Z" fill="#2B3990"/>
<path d="M14.8536 12.1464C14.7598 12.0527 14.6326 12 14.5 12C14.3674 12 14.2403 12.0527 14.1465 12.1464L10.1465 16.1464L10.8536 16.8536L14.5 13.2071L18.1465 16.8536C18.2402 16.9473 18.3674 17 18.5 17C18.6326 17 18.7598 16.9473 18.8536 16.8536L25.5 10.2071V11.5H26.5V9C26.5 8.86739 26.4473 8.74022 26.3536 8.64645C26.2598 8.55268 26.1326 8.5 26 8.5H23.5V9.5H24.7929L18.5 15.7929L14.8536 12.1464Z" fill="#2B3990"/>
<path d="M30.5 6.50003H5.5V7.50003H30V24.5H5.5V25.5H30.5C30.6326 25.5 30.7598 25.4473 30.8536 25.3536C30.9473 25.2598 31 25.1326 31 25V7.00003C31 6.86742 30.9473 6.74025 30.8536 6.64648C30.7598 6.55271 30.6326 6.50003 30.5 6.50003Z" fill="#2B3990"/>
<path d="M18 29.5C17.9998 29.6326 17.9471 29.7597 17.8534 29.8534C17.7597 29.9471 17.6326 29.9998 17.5 30H3.5C3.36744 29.9998 3.24035 29.9471 3.14661 29.8534C3.05288 29.7597 3.00015 29.6326 3 29.5V2.5C3.00015 2.36744 3.05288 2.24035 3.14661 2.14661C3.24035 2.05288 3.36744 2.00015 3.5 2H17.5C17.6326 2.00015 17.7597 2.05288 17.8534 2.14661C17.9471 2.24035 17.9998 2.36744 18 2.5V5.5H19V2.5C18.9995 2.10231 18.8414 1.72105 18.5602 1.43984C18.279 1.15864 17.8977 1.00045 17.5 1H3.5C3.10231 1.00045 2.72105 1.15864 2.43984 1.43984C2.15864 1.72105 2.00045 2.10231 2 2.5V29.5C2.00045 29.8977 2.15864 30.279 2.43984 30.5602C2.72105 30.8414 3.10231 30.9995 3.5 31H17.5C17.8977 30.9995 18.279 30.8414 18.5602 30.5602C18.8414 30.279 18.9995 29.8977 19 29.5V26.5H18V29.5Z" fill="#2B3990"/>
<path d="M17.5 5.50009V3.00009C17.5 2.86748 17.4473 2.74031 17.3535 2.64654C17.2598 2.55277 17.1326 2.50009 17 2.50009H12C11.8674 2.50009 11.7402 2.55277 11.6464 2.64654C11.5527 2.74031 11.5 2.86748 11.5 3.00009C11.5 3.26531 11.3946 3.51966 11.2071 3.7072C11.0195 3.89473 10.7652 4.00009 10.5 4.00009C10.2348 4.00009 9.98041 3.89473 9.79287 3.7072C9.60533 3.51966 9.49998 3.26531 9.49998 3.00009C9.49998 2.86748 9.4473 2.74031 9.35353 2.64654C9.25976 2.55277 9.13259 2.50009 8.99998 2.50009H3.99998C3.86737 2.50009 3.74019 2.55277 3.64643 2.64654C3.55266 2.74031 3.49998 2.86748 3.49998 3.00009V29.0001C3.49998 29.1327 3.55266 29.2599 3.64643 29.3536C3.74019 29.4474 3.86737 29.5001 3.99998 29.5001H17C17.1326 29.5001 17.2598 29.4474 17.3535 29.3536C17.4473 29.2599 17.5 29.1327 17.5 29.0001V26.5001H16.5V28.5001H4.49998V3.50009H8.56324C8.67415 3.92942 8.92457 4.30972 9.27514 4.58124C9.62571 4.85276 10.0566 5.00009 10.5 5.00009C10.9434 5.00009 11.3742 4.85276 11.7248 4.58124C12.0754 4.30972 12.3258 3.92942 12.4367 3.50009H16.5V5.50009H17.5Z" fill="#2B3990"/>
<path d="M10.5 3.50009C10.7761 3.50009 11 3.27623 11 3.00009C11 2.72395 10.7761 2.50009 10.5 2.50009C10.2238 2.50009 9.99999 2.72395 9.99999 3.00009C9.99999 3.27623 10.2238 3.50009 10.5 3.50009Z" fill="#2B3990"/>
</svg>
