<svg width="32" height="32" viewBox="0 0 32 32" fill="none" xmlns="http://www.w3.org/2000/svg">
<path d="M29.7865 5H2.21352C0.993004 5 0 6.12832 0 7.51516V24.4848C0 25.8717 0.993004 27 2.21352 27H29.7865C31.007 27 32 25.8717 32 24.4848V7.51516C32 6.12832 31.007 5 29.7865 5ZM30.6232 24.4849C30.6232 25.0091 30.2478 25.4357 29.7865 25.4357H2.21352C1.75209 25.4357 1.37678 25.0091 1.37678 24.4849V7.51516C1.37678 6.99093 1.75216 6.5644 2.21352 6.5644H29.7865C30.2479 6.5644 30.6232 6.99093 30.6232 7.51516V24.4849Z" fill="#2B3990"/>
<path d="M15.6193 9.70889C16.1111 10.6076 17.7582 13.3525 20.587 15.5054C19.8505 16.0505 17.4737 17.9707 15.6034 21.2977C15.0899 20.3661 13.4369 17.6362 10.6316 15.4997C11.3305 14.9871 13.7262 13.0775 15.6193 9.70889Z" stroke="#2B3990"/>
</svg>
