<svg width="267" height="60" viewBox="0 0 267 60" fill="none" xmlns="http://www.w3.org/2000/svg">
<path d="M12.7051 38.8469L13.0044 39.2461C15.7317 36.0864 19.1241 32.4611 23.1485 28.4368C23.1818 28.47 23.2483 28.47 23.2483 28.337C23.082 28.3037 23.1153 28.3702 23.1485 28.4368C19.4235 32.1618 15.7982 35.6208 12.7051 38.8469Z" fill="#224591"/>
<path d="M26.2749 25.5764C30.2328 21.6186 33.8248 18.2926 36.9179 15.5321L36.5521 15.0332C33.3924 18.1928 29.9667 21.8846 26.2749 25.5764C26.2417 25.5432 26.1751 25.5432 26.1751 25.6762C26.3414 25.7095 26.3082 25.6097 26.2749 25.5764Z" fill="#224591"/>
<path d="M26.8736 2.4612L47.4612 30L26.8736 57.5388L6.28599 30L26.8736 2.4612ZM26.8736 0L4.42346 30L26.8736 60L49.3237 30L26.8736 0Z" fill="url(#paint0_linear)"/>
<path d="M26.8736 22.7161C22.949 22.7161 19.7228 25.909 19.7228 29.8668C19.7228 32.8602 21.5853 35.4212 24.2128 36.4855L29.6008 31.3303L25.3769 36.8513C25.8425 36.9511 26.3414 37.0176 26.8403 37.0176C30.7649 37.0176 33.9911 33.8247 33.9911 29.8668C33.9911 25.909 30.8314 22.7161 26.8736 22.7161Z" fill="url(#paint1_linear)"/>
<path d="M49.1907 6.61862C48.8248 6.25276 47.9601 5.38802 40.5099 11.408C39.5122 12.2062 38.5144 13.1042 37.4501 14.102L37.8824 14.7007C44.0354 9.41241 47.8935 6.88469 48.592 7.18403C49.1241 8.31485 42.4057 17.4612 28.8026 31.0643C15.266 44.6009 6.1197 51.3525 4.95562 50.8536C4.65628 50.1219 7.05096 46.2971 12.1397 40.2439L11.7738 39.745C10.8425 40.776 9.94453 41.7738 9.17956 42.7384C3.15961 50.1885 3.99109 51.0532 4.39021 51.4191C4.48999 51.5188 4.65628 51.6851 5.02214 51.6851C5.88688 51.6851 7.84919 50.8537 13.0709 46.6297C17.694 42.8714 23.5144 37.5499 29.4346 31.6297C35.3547 25.7095 40.6762 19.8891 44.4346 15.2661C50.4213 7.84922 49.5565 6.98447 49.1907 6.61862Z" fill="url(#paint2_linear)"/>
<path d="M24.6785 15.8981C24.6785 17.0622 25.6097 17.9934 26.7738 17.9934C27.9379 17.9934 28.8692 17.0622 28.8692 15.8981C28.8692 14.734 27.9379 13.8027 26.7738 13.8027C25.6097 13.8027 24.6785 14.734 24.6785 15.8981ZM26.7738 15.0666C27.2395 15.0666 27.6053 15.4324 27.6053 15.8981C27.6053 16.3637 27.2395 16.7296 26.7738 16.7296C26.3082 16.7296 25.9423 16.3637 25.9423 15.8981C25.9423 15.4324 26.3082 15.0666 26.7738 15.0666Z" fill="url(#paint3_linear)"/>
<path d="M10.8426 8.91347H12.1729C12.1729 7.4168 13.3703 6.21946 14.867 6.21946V4.88908C13.3703 4.88908 12.1729 3.69174 12.1729 2.19507H10.8426C10.8426 3.69174 9.64523 4.88908 8.14856 4.88908V6.21946C9.64523 6.21946 10.8426 7.4168 10.8426 8.91347ZM11.5078 4.42345C11.8071 4.88908 12.2062 5.25494 12.6386 5.55427C12.1729 5.85361 11.8071 6.25272 11.5078 6.68509C11.2084 6.25272 10.8426 5.85361 10.3769 5.55427C10.8426 5.25494 11.2084 4.88908 11.5078 4.42345Z" fill="url(#paint4_linear)"/>
<path d="M1.66297 41.6409C2.5814 41.6409 3.32594 40.8963 3.32594 39.9779C3.32594 39.0595 2.5814 38.3149 1.66297 38.3149C0.744538 38.3149 0 39.0595 0 39.9779C0 40.8963 0.744538 41.6409 1.66297 41.6409Z" fill="url(#paint5_linear)"/>
<path d="M53.7139 11.2749L52.9822 13.0709L51.1862 13.8026L52.9822 14.5343L53.7139 16.2971L54.4456 14.5343L56.2084 13.8026L54.4456 13.0709L53.7139 11.2749Z" fill="url(#paint6_linear)"/>
<path d="M38.7472 53.8471C38.7472 55.0111 39.6785 55.9424 40.8426 55.9424C42.0067 55.9424 42.9379 55.0111 42.9379 53.8471C42.9379 52.683 42.0067 51.7517 40.8426 51.7517C39.6785 51.7517 38.7472 52.683 38.7472 53.8471ZM40.8426 53.0156C41.3082 53.0156 41.6741 53.3814 41.6741 53.8471C41.6741 54.3127 41.3082 54.6785 40.8426 54.6785C40.3769 54.6785 40.0111 54.3127 40.0111 53.8471C40.0111 53.3814 40.3769 53.0156 40.8426 53.0156Z" fill="url(#paint7_linear)"/>
<path d="M40.0111 27.4722L39.2794 29.2682L37.4834 29.9999L39.2794 30.7316L40.0111 32.5276L40.7428 30.7316L42.5055 29.9999L40.7428 29.2682L40.0111 27.4722Z" fill="url(#paint8_linear)"/>
<path d="M97.5499 19.091V26.6408C97.5499 26.9069 97.4834 27.1397 97.3503 27.3725C95.9202 29.6342 93.9911 31.3969 91.5964 32.7273C89.2018 34.0244 86.6075 34.6896 83.8137 34.6896C80.9202 34.6896 78.2262 33.9579 75.765 32.5278C73.3038 31.0643 71.3415 29.102 69.9113 26.6408C68.4479 24.1796 67.7494 21.4524 67.7494 18.5255C67.7494 15.5987 68.4811 12.9047 69.9113 10.4435C71.3747 7.9823 73.3038 6.02 75.765 4.58984C78.2262 3.15969 80.9202 2.42798 83.8137 2.42798C86.0754 2.42798 88.204 2.89361 90.2661 3.79162C92.2949 4.72288 94.0576 5.95348 95.5543 7.58319L91.1308 11.7739C90.1995 10.7428 89.102 9.91135 87.8714 9.34594C86.6075 8.78053 85.2772 8.48119 83.847 8.48119C82.051 8.48119 80.388 8.94683 78.8581 9.84483C77.3282 10.7428 76.1308 11.9734 75.2328 13.5034C74.3348 15.0333 73.8692 16.6963 73.8692 18.4923C73.8692 20.2883 74.3348 21.9845 75.2328 23.5145C76.1308 25.0776 77.3282 26.3082 78.8581 27.2062C80.388 28.1375 82.051 28.5699 83.847 28.5699C85.3769 28.5699 86.7738 28.2706 88.1042 27.6386C89.4013 27.0067 90.5321 26.1752 91.4634 25.0776V19.091H97.5499Z" fill="url(#paint9_linear)"/>
<path d="M125.388 34.2572L116.84 14.0354L108.193 34.2572H101.341L114.047 4.45671C114.313 3.8913 114.679 3.45893 115.177 3.12633C115.676 2.79374 116.242 2.62744 116.874 2.62744C117.472 2.62744 118.004 2.79374 118.47 3.12633C118.936 3.45893 119.302 3.8913 119.534 4.45671L132.239 34.2572H125.388Z" fill="url(#paint10_linear)"/>
<path d="M161.907 28.1375V34.2573H141.319C140.455 34.2573 139.69 33.9579 139.091 33.326C138.459 32.6941 138.16 31.9624 138.16 31.1309V2.99341H144.279V28.1043H161.907V28.1375Z" fill="url(#paint11_linear)"/>
<path d="M189.778 34.2572L181.231 14.0354L172.583 34.2572H165.732L178.437 4.45671C178.703 3.8913 179.069 3.45893 179.568 3.12633C180.067 2.79374 180.632 2.62744 181.264 2.62744C181.863 2.62744 182.395 2.79374 182.86 3.12633C183.326 3.45893 183.692 3.8913 183.925 4.45671L196.63 34.2572H189.778Z" fill="url(#paint12_linear)"/>
<path d="M219.546 18.6253L230.82 34.2573H223.404L215.854 23.7806L208.304 34.2573H200.887L212.162 18.6253L200.887 2.99341H208.304L215.854 13.4701L223.404 2.99341H230.82L219.546 18.6253Z" fill="url(#paint13_linear)"/>
<path d="M247.284 24.2794L234.612 2.99341H241.863L250.344 17.3947L258.792 2.99341H266.075L253.404 24.2794V34.2573H247.284V24.2794Z" fill="url(#paint14_linear)"/>
<path d="M127.55 56.4745C126.319 55.7428 125.355 54.7782 124.623 53.5144C123.891 52.2838 123.525 50.9202 123.525 49.4567C123.525 47.9933 123.891 46.6297 124.623 45.3991C125.355 44.1685 126.319 43.204 127.55 42.4723C128.78 41.7406 130.111 41.408 131.574 41.408C133.004 41.408 134.335 41.7738 135.565 42.4723C136.796 43.1707 137.761 44.1352 138.492 45.3658C139.224 46.5964 139.59 47.9601 139.59 49.4235C139.59 50.8869 139.224 52.2505 138.525 53.4811C137.794 54.7117 136.829 55.7095 135.599 56.4412C134.368 57.1729 133.038 57.5388 131.574 57.5388C130.111 57.572 128.78 57.2062 127.55 56.4745ZM134.069 53.847C134.834 53.3813 135.432 52.7827 135.898 52.0177C136.364 51.2527 136.563 50.388 136.563 49.49C136.563 48.592 136.33 47.7605 135.898 46.9955C135.432 46.2306 134.834 45.6319 134.069 45.1663C133.304 44.7006 132.472 44.5011 131.574 44.5011C130.676 44.5011 129.845 44.7339 129.08 45.1663C128.315 45.6319 127.716 46.2306 127.251 46.9955C126.785 47.7605 126.585 48.592 126.585 49.49C126.585 50.388 126.818 51.2195 127.251 52.0177C127.716 52.7827 128.315 53.4146 129.08 53.8802C129.845 54.3459 130.676 54.5787 131.574 54.5787C132.472 54.5122 133.304 54.3126 134.069 53.847Z" fill="#131526"/>
<path d="M149.767 44.8003V47.9933H157.783V51.0531H149.767V57.3391H146.707V43.3037C146.707 42.8713 146.874 42.5054 147.173 42.2061C147.472 41.9068 147.871 41.7405 148.304 41.7405H158.415V44.8003H149.767Z" fill="#131526"/>
<path d="M185.488 57.3392L181.197 47.2284L176.874 57.3392H173.448L179.801 42.439C179.934 42.1729 180.133 41.9401 180.366 41.7738C180.632 41.6075 180.898 41.541 181.197 41.541C181.497 41.541 181.763 41.6075 181.996 41.7738C182.228 41.9401 182.395 42.1729 182.528 42.439L188.88 57.3392H185.488Z" fill="#131526"/>
<path d="M203.814 52.2505H200.521V57.3391H197.461V43.3037C197.461 42.8713 197.628 42.5054 197.927 42.2061C198.226 41.9068 198.625 41.7405 199.058 41.7405H205.377C206.342 41.7405 207.24 41.9733 208.071 42.4722C208.903 42.9711 209.534 43.603 210.033 44.4345C210.532 45.266 210.765 46.164 210.765 47.1285C210.765 48.2926 210.432 49.3236 209.767 50.1884C209.102 51.0531 208.204 51.6518 207.107 52.0176L210.865 57.3724H207.373L203.814 52.2505ZM200.521 49.4234H205.377C206.009 49.4234 206.574 49.1906 207.04 48.7582C207.506 48.3258 207.705 47.7604 207.705 47.1285C207.705 46.4966 207.472 45.9312 207.04 45.4655C206.574 44.9999 206.042 44.7671 205.377 44.7671H200.521V49.4234Z" fill="#131526"/>
<path d="M231.486 44.8003H226.33V57.3724H223.271V44.8003H218.115V41.7405H231.486V44.8003Z" fill="#131526"/>
<path d="M238.803 55.9091L240.067 53.1486C241.996 54.0799 243.991 54.5455 246.053 54.5455C247.35 54.5455 248.348 54.3792 249.013 54.0799C249.679 53.7473 250.011 53.3149 250.011 52.7495C250.011 52.2839 249.845 51.918 249.512 51.6519C249.18 51.3859 248.747 51.2196 248.248 51.0865C247.716 50.9867 247.018 50.8537 246.12 50.7539C244.656 50.5876 243.492 50.3881 242.594 50.1885C241.696 49.989 240.898 49.5566 240.233 48.9579C239.534 48.3593 239.202 47.4612 239.202 46.2972C239.202 45.2994 239.501 44.4679 240.133 43.7362C240.732 43.0045 241.597 42.4391 242.661 42.0732C243.725 41.6741 244.922 41.5078 246.22 41.5078C247.35 41.5078 248.481 41.6076 249.612 41.8404C250.743 42.0732 251.807 42.3726 252.772 42.7717L251.541 45.5322C249.745 44.8005 247.982 44.4346 246.253 44.4346C244.989 44.4346 244.058 44.5677 243.393 44.867C242.727 45.1663 242.395 45.6652 242.395 46.3637C242.395 46.7628 242.561 47.0954 242.927 47.295C243.293 47.5278 243.692 47.6608 244.191 47.7606C244.656 47.8604 245.322 47.9269 246.186 48.0267C247.55 48.1597 248.747 48.3593 249.712 48.6253C250.676 48.8914 251.508 49.357 252.206 50.0222C252.905 50.6874 253.237 51.6187 253.237 52.816C253.237 53.7805 252.905 54.6453 252.273 55.377C251.641 56.1087 250.776 56.6741 249.712 57.0732C248.614 57.4723 247.417 57.6719 246.087 57.6719C243.426 57.5721 240.998 57.0067 238.803 55.9091Z" fill="#131526"/>
<defs>
<linearGradient id="paint0_linear" x1="26.8809" y1="60.0017" x2="26.8809" y2="-0.00166306" gradientUnits="userSpaceOnUse">
<stop stop-color="#224591"/>
<stop offset="1" stop-color="#151048"/>
</linearGradient>
<linearGradient id="paint1_linear" x1="30.4494" y1="36.0272" x2="23.3139" y2="23.6681" gradientUnits="userSpaceOnUse">
<stop stop-color="#224591"/>
<stop offset="1" stop-color="#151048"/>
</linearGradient>
<linearGradient id="paint2_linear" x1="26.7715" y1="51.7401" x2="26.7715" y2="6.36229" gradientUnits="userSpaceOnUse">
<stop stop-color="#224591"/>
<stop offset="1" stop-color="#151048"/>
</linearGradient>
<linearGradient id="paint3_linear" x1="26.7716" y1="17.9894" x2="26.7716" y2="13.7927" gradientUnits="userSpaceOnUse">
<stop stop-color="#224591"/>
<stop offset="1" stop-color="#151048"/>
</linearGradient>
<linearGradient id="paint4_linear" x1="11.5156" y1="8.91377" x2="11.5156" y2="2.19913" gradientUnits="userSpaceOnUse">
<stop stop-color="#224591"/>
<stop offset="1" stop-color="#151048"/>
</linearGradient>
<linearGradient id="paint5_linear" x1="1.67867" y1="41.6707" x2="1.67867" y2="38.3133" gradientUnits="userSpaceOnUse">
<stop stop-color="#224591"/>
<stop offset="1" stop-color="#151048"/>
</linearGradient>
<linearGradient id="paint6_linear" x1="53.7045" y1="16.3106" x2="53.7045" y2="11.2746" gradientUnits="userSpaceOnUse">
<stop stop-color="#224591"/>
<stop offset="1" stop-color="#151048"/>
</linearGradient>
<linearGradient id="paint7_linear" x1="40.8319" y1="55.9368" x2="40.8319" y2="51.7402" gradientUnits="userSpaceOnUse">
<stop stop-color="#224591"/>
<stop offset="1" stop-color="#151048"/>
</linearGradient>
<linearGradient id="paint8_linear" x1="40.0005" y1="32.5179" x2="40.0005" y2="27.4819" gradientUnits="userSpaceOnUse">
<stop stop-color="#224591"/>
<stop offset="1" stop-color="#151048"/>
</linearGradient>
<linearGradient id="paint9_linear" x1="82.6362" y1="34.6688" x2="82.6362" y2="2.41577" gradientUnits="userSpaceOnUse">
<stop stop-color="#141626"/>
<stop offset="0.7" stop-color="#2B3990"/>
</linearGradient>
<linearGradient id="paint10_linear" x1="116.791" y1="34.2468" x2="116.791" y2="2.62664" gradientUnits="userSpaceOnUse">
<stop stop-color="#141626"/>
<stop offset="0.7" stop-color="#2B3990"/>
</linearGradient>
<linearGradient id="paint11_linear" x1="150.038" y1="34.247" x2="150.038" y2="3.00671" gradientUnits="userSpaceOnUse">
<stop stop-color="#141626"/>
<stop offset="0.7" stop-color="#2B3990"/>
</linearGradient>
<linearGradient id="paint12_linear" x1="181.174" y1="34.2468" x2="181.174" y2="2.62664" gradientUnits="userSpaceOnUse">
<stop stop-color="#141626"/>
<stop offset="0.7" stop-color="#2B3990"/>
</linearGradient>
<linearGradient id="paint13_linear" x1="215.836" y1="34.247" x2="215.836" y2="3.00671" gradientUnits="userSpaceOnUse">
<stop stop-color="#141626"/>
<stop offset="0.7" stop-color="#2B3990"/>
</linearGradient>
<linearGradient id="paint14_linear" x1="250.35" y1="34.247" x2="250.35" y2="3.00671" gradientUnits="userSpaceOnUse">
<stop stop-color="#141626"/>
<stop offset="0.7" stop-color="#2B3990"/>
</linearGradient>
</defs>
</svg>
